<svg width="24" height="24" viewBox="0 0 24 24" fill="none" xmlns="http://www.w3.org/2000/svg">
<g clip-path="url(#clip0_9517_3522)">
<path d="M21 10.2002C21 17.2022 12 23.2022 12 23.2022C12 23.2022 3 17.2022 3 10.2002C3 7.81219 3.948 5.52619 5.634 3.8342C7.32 2.1482 9.612 1.2002 12 1.2002C14.388 1.2002 16.674 2.1482 18.366 3.8342C20.052 5.52019 21 7.81219 21 10.2002Z" stroke="#338DFF" stroke-width="2.5" stroke-linecap="round" stroke-linejoin="round"/>
<path opacity="0.4" d="M12 13.2002C13.656 13.2002 15 11.8562 15 10.2002C15 8.5442 13.656 7.2002 12 7.2002C10.344 7.2002 9 8.5442 9 10.2002C9 11.8562 10.344 13.2002 12 13.2002Z" stroke="#338DFF" stroke-width="2.5" stroke-linecap="round" stroke-linejoin="round"/>
</g>
<defs>
<clipPath id="clip0_9517_3522">
<rect width="24" height="24" fill="white"/>
</clipPath>
</defs>
</svg>
