<svg width="22" height="22" viewBox="0 0 22 22" fill="none" xmlns="http://www.w3.org/2000/svg">
<path d="M2.09912 7.13148V16.0506C2.09912 17.7923 3.33662 18.5073 4.83995 17.6456L6.99412 16.4173C7.46162 16.1515 8.24079 16.124 8.72662 16.3715L13.5391 18.7823C14.025 19.0206 14.8041 19.0023 15.2716 18.7365L19.2408 16.4631C19.745 16.1698 20.1666 15.4548 20.1666 14.8681V5.94898C20.1666 4.20731 18.9291 3.49231 17.4258 4.35398L15.2716 5.58232C14.8041 5.84815 14.025 5.87565 13.5391 5.62815L8.72662 3.22648C8.24079 2.98815 7.46162 3.00648 6.99412 3.27231L3.02495 5.54565C2.51162 5.83898 2.09912 6.55398 2.09912 7.13148Z" stroke="#C2DDFF" stroke-width="1.5" stroke-linecap="round" stroke-linejoin="round"/>
<path opacity="0.4" d="M7.84668 3.66699V15.5837" stroke="#C2DDFF" stroke-width="1.5" stroke-linecap="round" stroke-linejoin="round"/>
<path opacity="0.4" d="M14.4192 6.06836V18.3334" stroke="#C2DDFF" stroke-width="1.5" stroke-linecap="round" stroke-linejoin="round"/>
</svg>
