<svg width="24" height="24" viewBox="0 0 24 24" fill="none" xmlns="http://www.w3.org/2000/svg">
<path d="M12.0106 13.75H11.9928C10.9979 13.75 10.1914 14.5565 10.1914 15.5514V22.1983C10.1914 23.1932 10.9979 23.9997 11.9928 23.9997H12.0106C13.0055 23.9997 13.812 23.1932 13.812 22.1983V15.5514C13.812 14.5565 13.0055 13.75 12.0106 13.75Z" fill="#5CA4FF"/>
<path d="M19.2728 2.0325H16.96C16.7753 1.67297 16.4017 1.42641 15.9695 1.42641H14.8975C14.5473 1.42641 14.222 1.25813 14.0069 0.981562C13.5423 0.384375 12.8167 0 12.0016 0C11.1864 0 10.4608 0.384375 9.99625 0.981562C9.78109 1.25813 9.45625 1.42641 9.10563 1.42641H8.03359C7.60141 1.42641 7.22781 1.67297 7.04312 2.0325H4.73031C4.45 2.0325 4.22266 2.25984 4.22266 2.54016C4.22266 2.82047 4.45 3.04781 4.73031 3.04781H7.04312C7.22781 3.40734 7.60141 3.65391 8.03359 3.65391H9.10563C9.45578 3.65391 9.78109 3.82219 9.99625 4.09875C10.4608 4.69594 11.1864 5.08031 12.0016 5.08031C12.8167 5.08031 13.5423 4.69594 14.0069 4.09875C14.222 3.82219 14.5469 3.65391 14.8975 3.65391H15.9695C16.4017 3.65391 16.7753 3.40734 16.96 3.04781H19.2728C19.5531 3.04781 19.7805 2.82047 19.7805 2.54016C19.7805 2.25984 19.5531 2.0325 19.2728 2.0325ZM12.0016 3.94734C11.2188 3.94734 10.5845 3.31313 10.5845 2.53031C10.5845 1.7475 11.2188 1.11328 12.0016 1.11328C12.7844 1.11328 13.4186 1.7475 13.4186 2.53031C13.4186 3.31313 12.7844 3.94734 12.0016 3.94734ZM17.8159 8.62359C17.5741 7.37578 16.4336 6.16875 15.1891 5.89313C14.4334 5.73609 13.4055 5.58234 12.0016 5.57953C10.5981 5.58187 9.57016 5.73609 8.81406 5.89313C7.56953 6.16875 6.42906 7.37531 6.18719 8.62359C6.03531 9.38437 5.84734 11.505 5.86281 12.908C5.84734 14.3109 6.03531 16.432 6.18719 17.1923C6.42906 18.4406 7.56953 19.6472 8.81406 19.9228C8.98516 19.9584 9.17125 19.9936 9.37141 20.0273V15.5611C9.37141 14.1112 10.5512 12.9314 12.0011 12.9314C13.4509 12.9314 14.6308 14.1112 14.6308 15.5611V20.0273C14.8309 19.9936 15.017 19.9584 15.1881 19.9228C16.4327 19.6472 17.5731 18.4406 17.815 17.1923C17.9669 16.432 18.1548 14.3109 18.1394 12.908C18.1548 11.505 17.9669 9.38391 17.815 8.62359H17.8159ZM9.03766 10.7466C9.00437 10.9177 8.84828 11.0831 8.67719 11.1211C8.57359 11.1427 8.4325 11.1637 8.23984 11.1642C8.04719 11.1642 7.90656 11.1427 7.8025 11.1211C7.63187 11.0831 7.47531 10.9177 7.44203 10.7466C7.42141 10.642 7.3975 10.2159 7.3975 9.63984C7.3975 9.06375 7.42094 8.63719 7.44203 8.53312C7.47531 8.36203 7.63141 8.19656 7.8025 8.15859C7.90609 8.13703 8.04719 8.11594 8.23984 8.11547C8.4325 8.11547 8.57312 8.13703 8.67719 8.15859C8.84781 8.19656 9.00437 8.36203 9.03766 8.53312C9.05828 8.63766 9.08219 9.09656 9.08219 9.63984C9.08219 10.2164 9.05875 10.6425 9.03766 10.7466ZM16.5602 10.7466C16.5269 10.9177 16.3708 11.0831 16.1997 11.1211C16.0961 11.1427 15.955 11.1637 15.7623 11.1642C15.5697 11.1642 15.4291 11.1427 15.325 11.1211C15.1544 11.0831 14.9978 10.9177 14.9645 10.7466C14.9439 10.642 14.92 10.2159 14.92 9.63984C14.92 9.06375 14.9434 8.63719 14.9645 8.53312C14.9978 8.36203 15.1539 8.19656 15.325 8.15859C15.4286 8.13703 15.5697 8.11594 15.7623 8.11547C15.955 8.11547 16.0956 8.13703 16.1997 8.15859C16.3703 8.19656 16.5269 8.36203 16.5602 8.53312C16.5808 8.63766 16.6047 9.09656 16.6047 9.63984C16.6047 10.2164 16.5813 10.6425 16.5602 10.7466Z" fill="#5CA4FF"/>
</svg>
