<svg width="24" height="24" viewBox="0 0 24 24" fill="none" xmlns="http://www.w3.org/2000/svg">
<path d="M23.1691 12.9478C23.0004 11.0536 22.7224 10.6847 22.6174 10.5459C22.376 10.2253 21.9898 10.0158 21.581 9.79594C21.5579 9.78371 21.5379 9.76629 21.5227 9.74503C21.5075 9.72378 21.4974 9.69927 21.4933 9.67345C21.4891 9.64763 21.491 9.62121 21.4989 9.59626C21.5067 9.57131 21.5202 9.54852 21.5384 9.52969C21.614 9.45292 21.6722 9.36067 21.7089 9.25928C21.7455 9.15789 21.7598 9.04977 21.7507 8.94234C21.7331 8.75185 21.6445 8.57494 21.5025 8.44669C21.3606 8.31845 21.1756 8.24825 20.9843 8.25H20.253C20.2217 8.25019 20.1904 8.25222 20.1593 8.25609C20.1379 8.24683 20.1158 8.23946 20.0932 8.23406C19.6601 7.31859 19.0671 6.06516 17.838 5.45344C16.0151 4.54687 12.6569 4.5 12.0007 4.5C11.3444 4.5 7.98632 4.54687 6.1657 5.45203C4.93664 6.06375 4.34367 7.31719 3.91054 8.23266L3.90679 8.24016C3.88519 8.24319 3.86397 8.24854 3.84351 8.25609C3.81241 8.25222 3.7811 8.25019 3.74976 8.25H3.0171C2.8258 8.24825 2.64083 8.31845 2.49887 8.44669C2.35691 8.57494 2.26833 8.75185 2.2507 8.94234C2.24237 9.04952 2.25728 9.15723 2.29442 9.25811C2.33155 9.359 2.39003 9.45067 2.46585 9.52688C2.48399 9.54571 2.49751 9.5685 2.50533 9.59345C2.51316 9.6184 2.51508 9.64482 2.51094 9.67064C2.50681 9.69646 2.49673 9.72096 2.4815 9.74222C2.46627 9.76348 2.44631 9.7809 2.4232 9.79313C2.01445 10.0144 1.62632 10.2239 1.38679 10.5431C1.28179 10.6838 1.00429 11.0508 0.835072 12.945C0.741322 14.0109 0.72726 15.1144 0.800854 15.825C0.955072 17.3016 1.24429 18.1941 1.25648 18.2311C1.30086 18.3659 1.38255 18.4853 1.49208 18.5755C1.6016 18.6656 1.73446 18.7229 1.87523 18.7406V18.75C1.87523 18.9489 1.95425 19.1397 2.0949 19.2803C2.23555 19.421 2.42632 19.5 2.62523 19.5H5.25023C5.44914 19.5 5.63991 19.421 5.78056 19.2803C5.92121 19.1397 6.00023 18.9489 6.00023 18.75C6.40382 18.75 6.6846 18.6778 6.98226 18.6009C7.412 18.4851 7.85126 18.4081 8.29476 18.3708C9.72492 18.2344 11.1471 18.1875 12.0007 18.1875C12.8369 18.1875 14.3219 18.2344 15.7544 18.3708C16.1997 18.4082 16.6407 18.4855 17.0721 18.6019C17.3571 18.675 17.6276 18.7425 18.0021 18.7495C18.0021 18.9484 18.0811 19.1392 18.2218 19.2799C18.3624 19.4205 18.5532 19.4995 18.7521 19.4995H21.3771C21.576 19.4995 21.7668 19.4205 21.9074 19.2799C22.0481 19.1392 22.1271 18.9484 22.1271 18.7495V18.7439C22.2682 18.7265 22.4015 18.6694 22.5113 18.5792C22.6212 18.489 22.7032 18.3694 22.7477 18.2344C22.7599 18.1973 23.0491 17.3048 23.2034 15.8283C23.2769 15.1172 23.2638 14.0156 23.1691 12.9478ZM5.26617 8.87391C5.64117 8.07703 6.07007 7.17516 6.83367 6.795C7.9371 6.24563 10.2241 5.99812 12.0007 5.99812C13.7773 5.99812 16.0643 6.24375 17.1677 6.795C17.9313 7.17516 18.3584 8.0775 18.7352 8.87391L18.7821 8.97563C18.8095 9.03353 18.8216 9.0975 18.8173 9.16142C18.813 9.22534 18.7923 9.28708 18.7574 9.34076C18.7224 9.39445 18.6742 9.43827 18.6175 9.46806C18.5608 9.49785 18.4974 9.51261 18.4334 9.51094C16.8757 9.46875 13.5944 9.33375 12.0007 9.33375C10.4069 9.33375 7.1257 9.47203 5.5657 9.51422C5.50165 9.51589 5.43824 9.50113 5.38152 9.47134C5.3248 9.44155 5.27666 9.39773 5.24169 9.34405C5.20672 9.29037 5.18608 9.22862 5.18175 9.1647C5.17742 9.10078 5.18954 9.03681 5.21695 8.97891C5.23335 8.94422 5.2507 8.90906 5.26617 8.87391ZM5.82538 12.6066C5.01904 12.7036 4.20754 12.7515 3.39538 12.75C2.89851 12.75 2.38617 12.6094 2.29101 12.1669C2.22585 11.8692 2.23288 11.7019 2.26804 11.5336C2.29757 11.3906 2.34445 11.2866 2.57882 11.25C3.1882 11.1562 3.52898 11.2739 4.52648 11.5678C5.18788 11.7623 5.66507 12.0216 5.93695 12.2269C6.07335 12.3281 6.0007 12.5925 5.82538 12.6066ZM16.2026 16.4503C15.5857 16.5206 14.3519 16.4948 12.0148 16.4948C9.67757 16.4948 8.44429 16.5206 7.82742 16.4503C7.19085 16.3795 6.37945 15.7777 6.93351 15.2414C7.30242 14.888 8.16304 14.6236 9.30913 14.475C10.4552 14.3264 10.9404 14.25 12.0101 14.25C13.0798 14.25 13.5157 14.2969 14.711 14.4755C15.9063 14.6541 16.8096 14.9217 17.0866 15.2419C17.5919 15.8156 16.8387 16.3758 16.2026 16.4531V16.4503ZM21.7104 12.1664C21.6166 12.6108 21.101 12.7495 20.606 12.7495C19.7783 12.7497 18.9513 12.7018 18.1291 12.6061C17.9857 12.5925 17.9191 12.3408 18.0644 12.2264C18.3321 12.0159 18.8144 11.7619 19.4749 11.5673C20.4724 11.2734 21.0476 11.1558 21.5416 11.2537C21.6621 11.2777 21.7259 11.407 21.7334 11.4881C21.7664 11.7139 21.7586 11.9438 21.7104 12.1669V12.1664Z" fill="#5CA4FF"/>
</svg>
