<svg width="20" height="20" viewBox="0 0 20 20" fill="none" xmlns="http://www.w3.org/2000/svg">
<path d="M2.6416 6.19922L9.99992 10.4575L17.3082 6.22419" stroke="#5CA4FF" stroke-width="1.5" stroke-linecap="round" stroke-linejoin="round"/>
<path d="M10 18.0076V10.4492" stroke="#5CA4FF" stroke-width="1.5" stroke-linecap="round" stroke-linejoin="round"/>
<path d="M18.0079 7.64102V12.3577C18.0079 12.3994 18.0079 12.4327 17.9995 12.4743C17.4162 11.966 16.6662 11.666 15.8329 11.666C15.0495 11.666 14.3245 11.941 13.7495 12.3994C12.9829 13.0077 12.4995 13.9494 12.4995 14.9994C12.4995 15.6244 12.6745 16.216 12.9829 16.716C13.0579 16.8494 13.1495 16.9744 13.2495 17.091L11.7245 17.9327C10.7745 18.466 9.22453 18.466 8.27453 17.9327L3.82453 15.466C2.8162 14.9077 1.99121 13.5077 1.99121 12.3577V7.64102C1.99121 6.49102 2.8162 5.09103 3.82453 4.5327L8.27453 2.06602C9.22453 1.53268 10.7745 1.53268 11.7245 2.06602L16.1745 4.5327C17.1829 5.09103 18.0079 6.49102 18.0079 7.64102Z" stroke="#5CA4FF" stroke-width="1.5" stroke-linecap="round" stroke-linejoin="round"/>
<path d="M19.1667 14.9993C19.1667 15.9993 18.725 16.891 18.0333 17.4993C17.4417 18.016 16.675 18.3327 15.8333 18.3327C13.9917 18.3327 12.5 16.841 12.5 14.9993C12.5 13.9493 12.9833 13.0077 13.75 12.3994C14.325 11.941 15.05 11.666 15.8333 11.666C17.675 11.666 19.1667 13.1577 19.1667 14.9993Z" stroke="#5CA4FF" stroke-width="1.5" stroke-miterlimit="10" stroke-linecap="round" stroke-linejoin="round"/>
<path d="M16.0417 13.957V15.207L15 15.832" stroke="#5CA4FF" stroke-width="1.5" stroke-miterlimit="10" stroke-linecap="round" stroke-linejoin="round"/>
</svg>
