<svg width="22" height="22" viewBox="0 0 22 22" fill="none" xmlns="http://www.w3.org/2000/svg">
<path d="M1.83337 13.75H2.75004C5.50004 13.75 6.41671 14.6667 6.41671 17.4167V18.3333" stroke="#C2DDFF" stroke-width="1.5" stroke-miterlimit="10" stroke-linecap="round" stroke-linejoin="round"/>
<path d="M20.1667 13.75H19.25C16.5 13.75 15.5834 14.6667 15.5834 17.4167V18.3333" stroke="#C2DDFF" stroke-width="1.5" stroke-miterlimit="10" stroke-linecap="round" stroke-linejoin="round"/>
<path d="M15.5834 18.7913H6.41671C3.66671 18.7913 1.83337 17.4163 1.83337 14.208V7.79134C1.83337 4.58301 3.66671 3.20801 6.41671 3.20801H15.5834C18.3334 3.20801 20.1667 4.58301 20.1667 7.79134V14.208C20.1667 17.4163 18.3334 18.7913 15.5834 18.7913Z" stroke="#C2DDFF" stroke-width="1.5" stroke-miterlimit="10" stroke-linecap="round" stroke-linejoin="round"/>
<path d="M11 13.75C12.5188 13.75 13.75 12.5188 13.75 11C13.75 9.48122 12.5188 8.25 11 8.25C9.48122 8.25 8.25 9.48122 8.25 11C8.25 12.5188 9.48122 13.75 11 13.75Z" stroke="#C2DDFF" stroke-width="1.5" stroke-miterlimit="10" stroke-linecap="round" stroke-linejoin="round"/>
<path opacity="0.4" d="M1.83337 8.25033H2.75004C5.50004 8.25033 6.41671 7.33366 6.41671 4.58366V3.66699" stroke="#C2DDFF" stroke-width="1.5" stroke-miterlimit="10" stroke-linecap="round" stroke-linejoin="round"/>
<path opacity="0.4" d="M20.1667 8.25033H19.25C16.5 8.25033 15.5834 7.33366 15.5834 4.58366V3.66699" stroke="#C2DDFF" stroke-width="1.5" stroke-miterlimit="10" stroke-linecap="round" stroke-linejoin="round"/>
</svg>
