<svg width="61" height="79" viewBox="0 0 61 79" fill="none" xmlns="http://www.w3.org/2000/svg">
<g filter="url(#filter0_d_13122_33315)">
<path d="M50.1389 24.337C50.1389 32.983 37.8454 52.7545 32.5655 60.8474C31.4402 62.5723 28.9643 62.5723 27.8389 60.8474C22.559 52.7545 10.2656 32.983 10.2656 24.337C10.2656 13.3265 19.1918 4.40039 30.2022 4.40039C41.2127 4.40039 50.1389 13.3265 50.1389 24.337Z" fill="#338DFF"/>
<path d="M13.6802 26.0881C13.6802 16.5231 21.434 8.76929 30.9989 8.76929C36.59 8.76929 41.5608 11.4194 44.7279 15.5308C41.7371 10.3394 36.1322 6.84375 29.7103 6.84375C20.1445 6.84375 12.3906 14.5976 12.3906 24.1625C12.3906 28.1364 13.73 31.7973 15.9814 34.7197C14.5174 32.1785 13.6802 29.2311 13.6802 26.0881Z" fill="#338DFF"/>
<path d="M25.5 56.776C25.5005 56.7755 25.5013 56.7756 25.5016 56.7762C26.3788 58.2459 27.1796 59.5614 27.8619 60.6692C28.9605 62.4528 31.4972 62.4868 32.641 60.7318C37.9616 52.5676 50.1388 32.9423 50.1388 24.3372C50.1388 24.009 49.6951 23.9624 49.6013 24.2769C48.8626 26.7564 47.9141 29.1749 46.7954 31.503C43.0218 39.3584 37.4409 44.391 31.4972 50.764C29.5809 52.8178 27.5862 54.8495 25.5 56.776Z" fill="#338DFF"/>
<path d="M41.0975 34.3512C47.1136 28.3351 47.1136 18.581 41.0975 12.5648C35.0814 6.54869 25.3273 6.54869 19.3111 12.5648C13.295 18.581 13.295 28.3351 19.3111 34.3512C25.3273 40.3673 35.0814 40.3673 41.0975 34.3512Z" fill="white"/>
<path d="M35.7467 28.9736C35.5454 28.9763 35.3855 29.0506 35.2241 29.1175C34.6586 29.3519 34.094 29.5886 33.5282 29.822C33.4325 29.8615 33.3353 29.9096 33.2102 29.8668C33.1152 29.5796 33.2166 29.2899 33.3014 29.0313C33.4364 28.6195 33.4755 28.1964 33.5537 27.7785C33.7448 26.7573 33.9417 25.7364 34.0981 24.7097C34.2035 24.0187 34.3259 23.3309 34.432 22.6404C34.4745 22.3632 34.5753 22.1839 34.8725 22.0732C35.6481 21.7844 36.4535 21.573 37.1972 21.1998C37.2627 21.1669 37.3329 21.1528 37.3934 21.208C37.45 21.2597 37.4116 21.3208 37.4009 21.3795C37.2803 22.0404 37.1602 22.7014 37.0422 23.3627C37.0332 23.4128 37.041 23.4658 37.041 23.5401C37.3795 23.4065 37.5628 23.0927 37.865 22.9376C38.2096 22.7607 38.5287 23.0469 38.8798 22.958C38.9913 22.6489 38.9846 22.3118 39.0533 21.9895C39.1477 21.5465 39.2066 21.0959 39.2782 20.6481C39.3008 20.5064 39.4028 20.4517 39.518 20.3968C40.2284 20.0575 40.9861 19.8367 41.7058 19.5205C41.7898 19.4836 41.8685 19.4127 41.9744 19.4279C42.082 19.5077 42.0458 19.6177 42.0282 19.7169C41.6799 21.6764 41.3293 23.6355 40.9792 25.5947C40.9163 25.9471 40.8466 26.2986 40.7934 26.6525C40.7576 26.8915 40.6602 27.0287 40.4075 27.1108C39.9854 27.248 39.5925 27.4734 39.1722 27.6177C38.0155 28.0147 36.8896 28.4865 35.7467 28.9736Z" fill="#164265"/>
<path d="M32.2912 29.6123C31.8576 29.3664 31.4771 29.0651 31.0142 28.9092C30.8634 28.8583 30.7846 28.7725 30.8302 28.5705C30.907 28.2311 30.5405 27.8162 30.1769 27.7868C30.0724 27.7783 29.9642 27.767 29.8623 27.7842C29.2037 27.8954 28.6802 27.5811 28.1579 27.2568C27.9674 27.1385 27.7737 27.0255 27.5853 26.9124C27.6172 26.7645 27.7162 26.7744 27.8143 26.7743C28.8467 26.7728 29.8792 26.7669 30.9116 26.7699C31.1502 26.7706 31.3547 26.7012 31.5475 26.5656C31.9446 26.2865 31.9032 25.6339 31.4754 25.4019C31.2314 25.2696 30.9796 25.2036 30.7 25.2061C29.6408 25.2158 28.5815 25.2115 27.5224 25.2224C27.3513 25.2242 27.2961 25.1581 27.3166 25.0071C27.3436 24.808 27.3816 24.6105 27.4112 24.4117C27.4354 24.2489 27.5502 24.2318 27.682 24.2315C28.2073 24.2302 28.7326 24.2224 29.2578 24.226C29.9843 24.2308 30.7102 24.2223 31.4358 24.1801C31.906 24.1527 32.1913 23.8969 32.2341 23.4482C32.2652 23.1221 31.9926 22.7917 31.6034 22.6784C31.4755 22.6412 31.3464 22.6316 31.2143 22.6319C30.2426 22.6342 29.2708 22.6353 28.299 22.6354C27.9179 22.6354 27.8114 22.5185 27.873 22.146C27.9568 21.6395 28.0537 21.1353 28.1424 20.6297C28.21 20.2443 28.2707 19.8576 28.34 19.4725C28.3947 19.1682 28.465 19.1414 28.7403 19.2627C29.4527 19.5768 30.0788 20.0504 30.7781 20.3804C31.6096 20.7729 32.3768 21.2735 33.1864 21.6993C33.4274 21.8261 33.6868 21.9327 33.9385 22.0467C34.134 22.1353 34.1746 22.2594 34.1448 22.4408C34.0826 22.8195 34.0151 23.1973 33.9548 23.5763C33.804 24.5245 33.6315 25.4699 33.449 26.4113C33.3641 26.8496 33.2811 27.2918 33.194 27.7313C33.0838 28.2876 32.976 28.8452 32.8947 29.4062C32.822 29.9076 32.7952 29.9317 32.3746 29.6634C32.3525 29.6492 32.3301 29.6355 32.2912 29.6123Z" fill="#164265"/>
<path d="M30.6227 18.1017C30.9181 17.9664 31.2271 17.9196 31.4876 17.7489C31.5839 17.6858 31.6842 17.7127 31.7813 17.775C32.6776 18.3498 33.6421 18.8038 34.5618 19.3388C35.2538 19.7413 35.9791 20.0893 36.6686 20.5005C36.8022 20.5801 36.9521 20.6318 37.0914 20.7024C37.146 20.7301 37.194 20.7755 37.189 20.8463C37.1835 20.9264 37.1149 20.926 37.0579 20.948C36.3986 21.202 35.7394 21.4562 35.0831 21.7176C34.8643 21.8047 34.634 21.8533 34.412 21.9297C34.1764 22.0108 33.9668 21.8135 33.7639 21.7154C33.0421 21.3667 32.3632 20.9366 31.6442 20.5792C30.9888 20.2533 30.3436 19.9048 29.7144 19.5282C29.507 19.4041 29.2738 19.324 29.0591 19.2112C28.9796 19.1694 28.8736 19.1258 28.8711 19.0121C28.8682 18.8778 28.9894 18.8513 29.0814 18.8087C29.5881 18.5738 30.0963 18.342 30.6227 18.1017Z" fill="#164265"/>
<path d="M37.1884 16.4562C38.1907 17.0126 39.1835 17.5472 40.1715 18.0893C40.6748 18.3655 41.1733 18.6565 41.6879 18.9148C41.7561 18.9491 41.8494 18.9696 41.8432 19.0695C41.8377 19.158 41.7654 19.2066 41.6893 19.2325C40.8804 19.5084 40.0763 19.7968 39.2897 20.1324C39.1917 20.1742 39.1038 20.128 39.0175 20.0784C37.9866 19.4869 36.9355 18.9308 35.891 18.3653C35.185 17.9831 34.4899 17.5827 33.7892 17.1918C33.7149 17.1504 33.6242 17.1277 33.582 17.0193C33.8934 16.8098 34.254 16.7021 34.5941 16.557C35.0839 16.3481 35.5897 16.1767 36.0846 15.9793C36.2216 15.9246 36.333 15.9334 36.4545 16.0105C36.6908 16.1604 36.932 16.3024 37.1884 16.4562Z" fill="#164265"/>
<path d="M22.1069 23.9359C21.8795 23.9344 21.6774 23.945 21.4774 23.9284C21.196 23.9052 21.0042 23.6927 21.0039 23.4299C21.0036 23.1446 21.1688 22.9967 21.4843 22.9581C21.8441 22.914 22.201 22.9647 22.5592 22.9632C25.2808 22.9514 28.0025 22.942 30.7242 22.9346C30.9775 22.9339 31.2309 22.9579 31.4843 22.9602C31.7323 22.9625 31.8498 23.0977 31.8848 23.3252C31.928 23.6064 31.8316 23.7971 31.6056 23.8791C31.4465 23.9368 31.2796 23.9369 31.1128 23.9369C28.1196 23.9363 25.1263 23.9362 22.1069 23.9359Z" fill="#F67C0F"/>
<path d="M31.3772 25.6931C31.6281 26.1847 31.4668 26.5075 30.9516 26.5138C29.6236 26.53 28.2948 26.5023 26.9671 26.5307C25.8123 26.5554 24.6577 26.5431 23.5031 26.5559C23.3553 26.5575 23.2051 26.5495 23.0597 26.5243C22.7179 26.4652 22.5874 26.2942 22.6123 25.9633C22.6341 25.6741 22.8324 25.5029 23.1736 25.5023C24.2236 25.5005 25.2736 25.5063 26.3235 25.5072C27.8548 25.5085 29.386 25.5093 30.9172 25.5069C31.0921 25.5066 31.248 25.5343 31.3772 25.6931Z" fill="#F67C0F"/>
<path d="M26.3072 29.0777C25.9842 29.0644 25.6855 29.1083 25.3905 29.0483C25.0865 28.9865 24.9203 28.7959 24.9389 28.5333C24.9557 28.2976 25.1624 28.1009 25.4293 28.066C25.9786 27.9941 26.5301 28.0528 27.0796 28.0533C27.9286 28.0541 28.777 28.0532 29.6253 28.0247C29.7662 28.02 29.9035 28.0281 30.0422 28.0571C30.3819 28.1282 30.5085 28.2859 30.4985 28.6428C30.4921 28.873 30.3582 28.9897 30.0341 29.0447C29.6426 29.1111 29.2477 29.0728 28.8546 29.0762C28.0142 29.0834 27.1738 29.0779 26.3072 29.0777Z" fill="#F67C0F"/>
<path d="M17.1847 22.9612C17.7685 22.9625 18.3277 22.9576 18.8867 22.966C19.212 22.9708 19.3802 23.1216 19.4094 23.4023C19.4339 23.6378 19.264 23.831 18.9685 23.8991C18.9007 23.9147 18.8299 23.9303 18.7614 23.9271C18.0201 23.893 17.2792 23.8574 16.5362 23.8797C16.3161 23.8863 16.1743 23.7017 16.1581 23.4568C16.1403 23.1888 16.2531 23.0102 16.4813 22.9606C16.7066 22.9116 16.9337 22.9436 17.1847 22.9612Z" fill="#F67C0F"/>
<path d="M23.01 29.0529C22.3685 29.0981 21.7487 29.0806 21.1298 29.0672C20.9226 29.0628 20.687 29.05 20.597 28.7783C20.5227 28.5536 20.5703 28.3699 20.7217 28.1993C20.8253 28.0825 20.9602 28.0654 21.103 28.0654C21.7138 28.0657 22.3247 28.0648 22.9356 28.0666C23.301 28.0678 23.4958 28.2336 23.5185 28.5565C23.5384 28.8399 23.4054 28.9747 23.01 29.0529Z" fill="#F67C0F"/>
<path d="M20.9137 26.0287C20.8286 26.4146 20.7307 26.5087 20.364 26.515C19.8134 26.5245 19.2624 26.5249 18.7117 26.5156C18.378 26.51 18.2029 26.3315 18.1882 26.0196C18.175 25.7375 18.3431 25.5408 18.6787 25.5276C19.2634 25.5047 19.8498 25.5039 20.4349 25.5186C20.7309 25.5261 20.8488 25.6731 20.9137 26.0287Z" fill="#F67C0F"/>
</g>
<defs>
<filter id="filter0_d_13122_33315" x="-10.0635" y="0.000391006" width="80.5333" height="80.5333" filterUnits="userSpaceOnUse" color-interpolation-filters="sRGB">
<feFlood flood-opacity="0" result="BackgroundImageFix"/>
<feColorMatrix in="SourceAlpha" type="matrix" values="0 0 0 0 0 0 0 0 0 0 0 0 0 0 0 0 0 0 127 0" result="hardAlpha"/>
<feOffset dy="5.86667"/>
<feGaussianBlur stdDeviation="5.13333"/>
<feComposite in2="hardAlpha" operator="out"/>
<feColorMatrix type="matrix" values="0 0 0 0 0.114089 0 0 0 0 0 0 0 0 0 0.374509 0 0 0 0.5 0"/>
<feBlend mode="normal" in2="BackgroundImageFix" result="effect1_dropShadow_13122_33315"/>
<feBlend mode="normal" in="SourceGraphic" in2="effect1_dropShadow_13122_33315" result="shape"/>
</filter>
</defs>
</svg>
