<svg width="24" height="24" viewBox="0 0 24 24" fill="none" xmlns="http://www.w3.org/2000/svg">
<path d="M12.0037 1.91992C8.4659 1.91992 5.59766 4.78792 5.59766 8.326C5.59766 12.0412 10.2726 16.7879 11.6353 18.0926C11.7342 18.1882 11.8663 18.2416 12.0039 18.2416C12.1414 18.2416 12.2735 18.1882 12.3724 18.0926C13.7349 16.7879 18.4101 12.0412 18.4101 8.326C18.4098 4.78792 15.5416 1.91992 12.0037 1.91992ZM12.0037 10.486C10.8107 10.486 9.84374 9.51904 9.84374 8.326C9.84374 7.13296 10.8107 6.166 12.0037 6.166C13.1968 6.166 14.1637 7.13296 14.1637 8.326C14.1637 9.51904 13.1968 10.486 12.0037 10.486Z" fill="#5CA4FF"/>
<path d="M15.6112 16.2217C15.2892 16.6022 14.9588 16.9754 14.6202 17.341C15.2816 17.637 15.6913 18.0438 15.6913 18.4933C15.6913 19.3974 14.0392 20.1303 12.0013 20.1303C9.96348 20.1303 8.31132 19.3974 8.31132 18.4933C8.31132 18.0438 8.721 17.637 9.38244 17.341C9.04374 16.9754 8.71334 16.6022 8.39148 16.2217C6.42012 16.779 5.10156 17.7752 5.10156 18.9152C5.10108 20.6634 8.19036 22.0803 12.0011 22.0803C15.8118 22.0803 18.9011 20.6634 18.9011 18.9152C18.9011 17.7752 17.5825 16.779 15.6112 16.2217Z" fill="#5CA4FF"/>
</svg>
