<svg width="22" height="22" viewBox="0 0 22 22" fill="none" xmlns="http://www.w3.org/2000/svg">
<path d="M15.582 16.8933H11.9154L7.83619 19.6066C7.23119 20.0099 6.41536 19.5791 6.41536 18.8458V16.8933C3.66536 16.8933 1.83203 15.06 1.83203 12.31V6.8099C1.83203 4.0599 3.66536 2.22656 6.41536 2.22656H15.582C18.332 2.22656 20.1654 4.0599 20.1654 6.8099V12.31C20.1654 15.06 18.332 16.8933 15.582 16.8933Z" stroke="#C2DDFF" stroke-width="1.5" stroke-miterlimit="10" stroke-linecap="round" stroke-linejoin="round"/>
<path opacity="0.4" d="M10.9982 10.4141V10.2216C10.9982 9.59826 11.3832 9.26825 11.7682 9.00242C12.1441 8.74575 12.5198 8.41576 12.5198 7.81076C12.5198 6.96743 11.8415 6.28906 10.9982 6.28906C10.1549 6.28906 9.47656 6.96743 9.47656 7.81076" stroke="#C2DDFF" stroke-width="1.5" stroke-linecap="round" stroke-linejoin="round"/>
<path opacity="0.4" d="M10.9972 12.6048H11.0054" stroke="#C2DDFF" stroke-width="1.5" stroke-linecap="round" stroke-linejoin="round"/>
</svg>
