<svg width="50" height="50" viewBox="0 0 50 50" fill="none" xmlns="http://www.w3.org/2000/svg">
<g clip-path="url(#clip0_6611_8591)">
<path d="M49.9961 25C49.9961 37.4785 40.8535 47.8213 28.9023 49.6963V32.2266H34.7275L35.8359 25H28.9023V20.3105C28.9023 18.333 29.8711 16.4062 32.9766 16.4062H36.1289V10.2539C36.1289 10.2539 33.2676 9.76562 30.5322 9.76562C24.8223 9.76562 21.0898 13.2266 21.0898 19.4922V25H14.7422V32.2266H21.0898V49.6963C9.13867 47.8213 -0.00390625 37.4785 -0.00390625 25C-0.00390625 11.1934 11.1895 0 24.9961 0C38.8027 0 49.9961 11.1934 49.9961 25Z" fill="#1877F2"/>
<path d="M34.7275 32.2266L35.8359 25H28.9023V20.3104C28.9023 18.3334 29.8709 16.4062 32.9765 16.4062H36.1289V10.2539C36.1289 10.2539 33.268 9.76562 30.5327 9.76562C24.8222 9.76562 21.0898 13.2266 21.0898 19.4922V25H14.7422V32.2266H21.0898V49.6962C22.3627 49.8959 23.6672 50 24.9961 50C26.325 50 27.6295 49.8959 28.9023 49.6962V32.2266H34.7275Z" fill="white"/>
</g>
<defs>
<clipPath id="clip0_6611_8591">
<rect width="50" height="50" fill="white"/>
</clipPath>
</defs>
</svg>
