<svg width="20" height="20" viewBox="0 0 20 20" fill="none" xmlns="http://www.w3.org/2000/svg">
<path d="M12.5003 1.66699V10.0003C12.5003 10.917 11.7503 11.667 10.8337 11.667H1.66699V6.35032C2.27533 7.07532 3.20868 7.52533 4.24201 7.50033C5.08368 7.48366 5.84199 7.15866 6.40866 6.61699C6.66699 6.40033 6.88368 6.12532 7.05034 5.82532C7.35034 5.31698 7.51699 4.71697 7.50033 4.09197C7.47533 3.11697 7.042 2.25866 6.367 1.66699H12.5003Z" stroke="#5CA4FF" stroke-width="1.5" stroke-linecap="round" stroke-linejoin="round"/>
<path d="M18.3337 11.667V14.167C18.3337 15.5503 17.217 16.667 15.8337 16.667H15.0003C15.0003 15.7503 14.2503 15.0003 13.3337 15.0003C12.417 15.0003 11.667 15.7503 11.667 16.667H8.33366C8.33366 15.7503 7.58366 15.0003 6.66699 15.0003C5.75033 15.0003 5.00033 15.7503 5.00033 16.667H4.16699C2.78366 16.667 1.66699 15.5503 1.66699 14.167V11.667H10.8337C11.7503 11.667 12.5003 10.917 12.5003 10.0003V4.16699H14.0337C14.6337 4.16699 15.1837 4.492 15.4837 5.00867L16.9086 7.50033H15.8337C15.3753 7.50033 15.0003 7.87533 15.0003 8.33366V10.8337C15.0003 11.292 15.3753 11.667 15.8337 11.667H18.3337Z" stroke="#5CA4FF" stroke-width="1.5" stroke-linecap="round" stroke-linejoin="round"/>
<path d="M6.66667 18.3333C7.58714 18.3333 8.33333 17.5871 8.33333 16.6667C8.33333 15.7462 7.58714 15 6.66667 15C5.74619 15 5 15.7462 5 16.6667C5 17.5871 5.74619 18.3333 6.66667 18.3333Z" stroke="#5CA4FF" stroke-width="1.5" stroke-linecap="round" stroke-linejoin="round"/>
<path d="M13.3337 18.3333C14.2541 18.3333 15.0003 17.5871 15.0003 16.6667C15.0003 15.7462 14.2541 15 13.3337 15C12.4132 15 11.667 15.7462 11.667 16.6667C11.667 17.5871 12.4132 18.3333 13.3337 18.3333Z" stroke="#5CA4FF" stroke-width="1.5" stroke-linecap="round" stroke-linejoin="round"/>
<path d="M18.3333 10V11.6667H15.8333C15.375 11.6667 15 11.2917 15 10.8333V8.33333C15 7.875 15.375 7.5 15.8333 7.5H16.9083L18.3333 10Z" stroke="#5CA4FF" stroke-width="1.5" stroke-linecap="round" stroke-linejoin="round"/>
<path d="M7.49965 4.09195C7.51632 4.71695 7.34967 5.31696 7.04967 5.82529C6.88301 6.12529 6.66632 6.4003 6.40799 6.61697C5.84132 7.15864 5.08301 7.48363 4.24134 7.5003C3.20801 7.5253 2.27465 7.0753 1.66632 6.3503C1.54965 6.2253 1.44966 6.08364 1.35799 5.94197C1.03299 5.4503 0.849655 4.86699 0.832988 4.24199C0.807988 3.19199 1.27465 2.23363 2.02465 1.60863C2.59132 1.14196 3.30797 0.850301 4.0913 0.833635C4.9663 0.816968 5.76633 1.13363 6.36633 1.66697C7.04133 2.25863 7.47465 3.11695 7.49965 4.09195Z" stroke="#5CA4FF" stroke-width="1.5" stroke-miterlimit="10" stroke-linecap="round" stroke-linejoin="round"/>
<path d="M2.86633 4.19198L3.70801 4.99194L5.44965 3.30859" stroke="#5CA4FF" stroke-width="1.5" stroke-linecap="round" stroke-linejoin="round"/>
</svg>
