<svg width="20" height="20" viewBox="0 0 20 20" fill="none" xmlns="http://www.w3.org/2000/svg">
<path d="M2.6416 6.2002L9.99992 10.4585L17.3082 6.22517" stroke="#5CA4FF" stroke-width="1.5" stroke-linecap="round" stroke-linejoin="round"/>
<path d="M9.99988 18.0085V10.4502" stroke="#5CA4FF" stroke-width="1.5" stroke-linecap="round" stroke-linejoin="round"/>
<path d="M18.0079 7.64199V12.3587C18.0079 12.4004 18.0079 12.4337 17.9995 12.4753C17.4162 11.967 16.6662 11.667 15.8329 11.667C15.0495 11.667 14.3245 11.942 13.7495 12.4003C12.9829 13.0087 12.4995 13.9503 12.4995 15.0003C12.4995 15.6253 12.6745 16.217 12.9829 16.717C13.0579 16.8503 13.1495 16.9753 13.2495 17.092L11.7245 17.9337C10.7745 18.467 9.22453 18.467 8.27453 17.9337L3.82453 15.467C2.8162 14.9087 1.99121 13.5087 1.99121 12.3587V7.64199C1.99121 6.49199 2.8162 5.09201 3.82453 4.53368L8.27453 2.06699C9.22453 1.53366 10.7745 1.53366 11.7245 2.06699L16.1745 4.53368C17.1829 5.09201 18.0079 6.49199 18.0079 7.64199Z" stroke="#5CA4FF" stroke-width="1.5" stroke-linecap="round" stroke-linejoin="round"/>
<path d="M19.1667 15.0003C19.1667 16.0003 18.725 16.892 18.0333 17.5003C17.4417 18.017 16.675 18.3337 15.8333 18.3337C13.9917 18.3337 12.5 16.842 12.5 15.0003C12.5 13.9503 12.9833 13.0087 13.75 12.4003C14.325 11.942 15.05 11.667 15.8333 11.667C17.675 11.667 19.1667 13.1587 19.1667 15.0003Z" stroke="#5CA4FF" stroke-width="1.5" stroke-miterlimit="10" stroke-linecap="round" stroke-linejoin="round"/>
<path d="M16.0417 13.959V15.209L15 15.834" stroke="#5CA4FF" stroke-width="1.5" stroke-miterlimit="10" stroke-linecap="round" stroke-linejoin="round"/>
</svg>
