<svg width="50" height="50" viewBox="0 0 50 50" fill="none" xmlns="http://www.w3.org/2000/svg">
<g clip-path="url(#clip0_6611_8594)">
<path d="M25.0039 50C11.1989 50 0.00390625 38.805 0.00390625 25C0.00390625 11.195 11.1989 0 25.0039 0C38.8089 0 50.0039 11.195 50.0039 25C50.0039 38.805 38.8089 50 25.0039 50Z" fill="url(#paint0_linear_6611_8594)"/>
<path d="M24.9997 11.0096C29.5547 11.0096 30.0947 11.0246 31.8947 11.1096C33.5597 11.1846 34.4647 11.4646 35.0647 11.6996C35.8597 12.0096 36.4297 12.3796 37.0247 12.9746C37.6197 13.5696 37.9897 14.1396 38.2997 14.9346C38.5347 15.5346 38.8097 16.4396 38.8897 18.1046C38.9697 19.9046 38.9897 20.4446 38.9897 24.9996C38.9897 29.5546 38.9747 30.0946 38.8897 31.8946C38.8147 33.5596 38.5347 34.4646 38.2997 35.0646C37.9897 35.8596 37.6197 36.4296 37.0247 37.0246C36.4297 37.6196 35.8597 37.9896 35.0647 38.2996C34.4647 38.5346 33.5597 38.8096 31.8947 38.8896C30.0947 38.9696 29.5547 38.9896 24.9997 38.9896C20.4447 38.9896 19.9047 38.9746 18.1047 38.8896C16.4397 38.8146 15.5347 38.5346 14.9347 38.2996C14.1397 37.9896 13.5697 37.6196 12.9747 37.0246C12.3797 36.4296 12.0097 35.8596 11.6997 35.0646C11.4647 34.4646 11.1897 33.5596 11.1097 31.8946C11.0297 30.0946 11.0097 29.5546 11.0097 24.9996C11.0097 20.4446 11.0247 19.9046 11.1097 18.1046C11.1847 16.4396 11.4647 15.5346 11.6997 14.9346C12.0097 14.1396 12.3797 13.5696 12.9747 12.9746C13.5697 12.3796 14.1397 12.0096 14.9347 11.6996C15.5347 11.4646 16.4397 11.1896 18.1047 11.1096C19.9047 11.0246 20.4447 11.0096 24.9997 11.0096ZM24.9997 7.93457C20.3647 7.93457 19.7847 7.95457 17.9647 8.03957C16.1497 8.12457 14.9097 8.40957 13.8197 8.83457C12.6997 9.26457 11.7447 9.84957 10.7997 10.7996C9.84969 11.7496 9.26969 12.6996 8.82969 13.8246C8.40969 14.9096 8.11969 16.1496 8.03469 17.9696C7.94969 19.7896 7.92969 20.3696 7.92969 25.0046C7.92969 29.6396 7.94969 30.2196 8.03469 32.0396C8.11969 33.8546 8.40469 35.0946 8.82969 36.1846C9.26469 37.2996 9.84969 38.2546 10.7997 39.1996C11.7497 40.1496 12.6997 40.7296 13.8247 41.1696C14.9097 41.5896 16.1497 41.8796 17.9697 41.9646C19.7897 42.0496 20.3697 42.0696 25.0047 42.0696C29.6397 42.0696 30.2197 42.0496 32.0397 41.9646C33.8547 41.8796 35.0947 41.5946 36.1847 41.1696C37.2997 40.7346 38.2547 40.1496 39.1997 39.1996C40.1497 38.2496 40.7297 37.2996 41.1697 36.1746C41.5897 35.0896 41.8797 33.8496 41.9647 32.0296C42.0497 30.2096 42.0697 29.6296 42.0697 24.9946C42.0697 20.3596 42.0497 19.7796 41.9647 17.9596C41.8797 16.1446 41.5947 14.9046 41.1697 13.8146C40.7347 12.6996 40.1497 11.7446 39.1997 10.7996C38.2497 9.84957 37.2997 9.26957 36.1747 8.82957C35.0897 8.40957 33.8497 8.11957 32.0297 8.03457C30.2147 7.95457 29.6347 7.93457 24.9997 7.93457Z" fill="white"/>
<path d="M24.9994 16.2354C20.1594 16.2354 16.2344 20.1604 16.2344 25.0004C16.2344 29.8404 20.1594 33.7654 24.9994 33.7654C29.8394 33.7654 33.7644 29.8404 33.7644 25.0004C33.7644 20.1604 29.8394 16.2354 24.9994 16.2354ZM24.9994 30.6904C21.8594 30.6904 19.3094 28.1454 19.3094 25.0004C19.3094 21.8554 21.8594 19.3104 24.9994 19.3104C28.1394 19.3104 30.6894 21.8554 30.6894 25.0004C30.6894 28.1454 28.1394 30.6904 24.9994 30.6904Z" fill="white"/>
<path d="M34.1086 17.9398C35.2408 17.9398 36.1586 17.022 36.1586 15.8898C36.1586 14.7577 35.2408 13.8398 34.1086 13.8398C32.9764 13.8398 32.0586 14.7577 32.0586 15.8898C32.0586 17.022 32.9764 17.9398 34.1086 17.9398Z" fill="white"/>
</g>
<defs>
<linearGradient id="paint0_linear_6611_8594" x1="7.32626" y1="42.6777" x2="42.6816" y2="7.32235" gradientUnits="userSpaceOnUse">
<stop stop-color="#FFD521"/>
<stop offset="0.055" stop-color="#FFD020"/>
<stop offset="0.124" stop-color="#FEC01E"/>
<stop offset="0.2" stop-color="#FCA71B"/>
<stop offset="0.282" stop-color="#FA8316"/>
<stop offset="0.368" stop-color="#F85510"/>
<stop offset="0.456" stop-color="#F51E09"/>
<stop offset="0.5" stop-color="#F30005"/>
<stop offset="0.503" stop-color="#F20007"/>
<stop offset="0.597" stop-color="#E1003B"/>
<stop offset="0.688" stop-color="#D30067"/>
<stop offset="0.776" stop-color="#C70088"/>
<stop offset="0.859" stop-color="#BF00A0"/>
<stop offset="0.936" stop-color="#BB00AF"/>
<stop offset="1" stop-color="#B900B4"/>
</linearGradient>
<clipPath id="clip0_6611_8594">
<rect width="50" height="50" fill="white"/>
</clipPath>
</defs>
</svg>
