<svg width="20" height="20" viewBox="0 0 20 20" fill="none" xmlns="http://www.w3.org/2000/svg">
<path d="M12.5003 1.66602V9.99935C12.5003 10.916 11.7503 11.666 10.8337 11.666H1.66699V6.34934C2.27533 7.07434 3.20868 7.52435 4.24201 7.49935C5.08368 7.48268 5.84199 7.15768 6.40866 6.61602C6.66699 6.39935 6.88368 6.12434 7.05034 5.82434C7.35034 5.31601 7.51699 4.71599 7.50033 4.09099C7.47533 3.11599 7.042 2.25768 6.367 1.66602H12.5003Z" stroke="#5CA4FF" stroke-width="1.5" stroke-linecap="round" stroke-linejoin="round"/>
<path d="M18.3337 11.666V14.166C18.3337 15.5493 17.217 16.666 15.8337 16.666H15.0003C15.0003 15.7493 14.2503 14.9993 13.3337 14.9993C12.417 14.9993 11.667 15.7493 11.667 16.666H8.33366C8.33366 15.7493 7.58366 14.9993 6.66699 14.9993C5.75033 14.9993 5.00033 15.7493 5.00033 16.666H4.16699C2.78366 16.666 1.66699 15.5493 1.66699 14.166V11.666H10.8337C11.7503 11.666 12.5003 10.916 12.5003 9.99935V4.16602H14.0337C14.6337 4.16602 15.1837 4.49102 15.4837 5.00769L16.9086 7.49935H15.8337C15.3753 7.49935 15.0003 7.87435 15.0003 8.33268V10.8327C15.0003 11.291 15.3753 11.666 15.8337 11.666H18.3337Z" stroke="#5CA4FF" stroke-width="1.5" stroke-linecap="round" stroke-linejoin="round"/>
<path d="M6.66667 18.3333C7.58714 18.3333 8.33333 17.5871 8.33333 16.6667C8.33333 15.7462 7.58714 15 6.66667 15C5.74619 15 5 15.7462 5 16.6667C5 17.5871 5.74619 18.3333 6.66667 18.3333Z" stroke="#5CA4FF" stroke-width="1.5" stroke-linecap="round" stroke-linejoin="round"/>
<path d="M13.3337 18.3333C14.2541 18.3333 15.0003 17.5871 15.0003 16.6667C15.0003 15.7462 14.2541 15 13.3337 15C12.4132 15 11.667 15.7462 11.667 16.6667C11.667 17.5871 12.4132 18.3333 13.3337 18.3333Z" stroke="#5CA4FF" stroke-width="1.5" stroke-linecap="round" stroke-linejoin="round"/>
<path d="M18.3333 10V11.6667H15.8333C15.375 11.6667 15 11.2917 15 10.8333V8.33333C15 7.875 15.375 7.5 15.8333 7.5H16.9083L18.3333 10Z" stroke="#5CA4FF" stroke-width="1.5" stroke-linecap="round" stroke-linejoin="round"/>
<path d="M7.49965 4.09097C7.51632 4.71597 7.34967 5.31598 7.04967 5.82432C6.88301 6.12432 6.66632 6.39933 6.40799 6.61599C5.84132 7.15766 5.08301 7.48266 4.24134 7.49932C3.20801 7.52432 2.27465 7.07432 1.66632 6.34932C1.54965 6.22432 1.44966 6.08266 1.35799 5.94099C1.03299 5.44933 0.849655 4.86601 0.832988 4.24101C0.807988 3.19101 1.27465 2.23265 2.02465 1.60765C2.59132 1.14099 3.30797 0.849325 4.0913 0.832658C4.9663 0.815991 5.76633 1.13266 6.36633 1.66599C7.04133 2.25766 7.47465 3.11597 7.49965 4.09097Z" stroke="#5CA4FF" stroke-width="1.5" stroke-miterlimit="10" stroke-linecap="round" stroke-linejoin="round"/>
<path d="M2.86621 4.19002L3.70789 4.98999L5.44952 3.30664" stroke="#5CA4FF" stroke-width="1.5" stroke-linecap="round" stroke-linejoin="round"/>
</svg>
