<svg width="311" height="87" viewBox="0 0 311 87" fill="none" xmlns="http://www.w3.org/2000/svg">
<path d="M72.8653 63.9039C72.179 63.9131 71.6339 64.1665 71.0838 64.3944C69.1559 65.1934 67.2314 66.0004 65.3022 66.7962C64.9763 66.9307 64.6449 67.0949 64.2182 66.949C63.8943 65.9699 64.2401 64.9822 64.5291 64.1006C64.9893 62.6969 65.1226 61.2544 65.3893 59.8296C66.0408 56.3482 66.7119 52.8681 67.2454 49.3677C67.6044 47.0122 68.022 44.6675 68.3834 42.3133C68.5285 41.3684 68.8721 40.7572 69.8854 40.3798C72.5292 39.3952 75.2749 38.6746 77.8103 37.4022C78.0336 37.2901 78.273 37.242 78.4791 37.4301C78.6721 37.6064 78.5414 37.8146 78.5049 38.0148C78.0937 40.2679 77.6842 42.5212 77.2818 44.7759C77.2513 44.9464 77.2778 45.1272 77.2778 45.3805C78.4319 44.9253 79.0567 43.8552 80.0869 43.3265C81.2617 42.7237 82.3496 43.6991 83.5464 43.396C83.9265 42.3422 83.9038 41.193 84.138 40.0944C84.4598 38.5842 84.6605 37.0481 84.9045 35.5217C84.9818 35.0383 85.3295 34.8521 85.7221 34.6646C88.1439 33.5082 90.7271 32.7553 93.1807 31.6775C93.4671 31.5517 93.7353 31.3101 94.0963 31.3616C94.463 31.6338 94.3398 32.0089 94.2796 32.3471C93.0922 39.0271 91.897 45.7058 90.7037 52.3848C90.489 53.5863 90.2514 54.7844 90.0703 55.991C89.948 56.8059 89.616 57.2734 88.7546 57.5535C87.3157 58.0212 85.976 58.7894 84.5432 59.2813C80.6001 60.635 76.7617 62.2433 72.8653 63.9039Z" fill="#164265"/>
<path d="M61.0895 66.0778C59.6112 65.2395 58.3138 64.2125 56.736 63.6808C56.2219 63.5076 55.953 63.215 56.1087 62.5264C56.3704 61.3694 55.121 59.9548 53.8815 59.8545C53.5253 59.8257 53.1564 59.787 52.809 59.8457C50.5638 60.2249 48.779 59.1535 46.9985 58.0476C46.3492 57.6444 45.6888 57.2592 45.0466 56.8736C45.1552 56.3696 45.4927 56.4033 45.8272 56.4028C49.3468 56.3978 52.8664 56.3777 56.386 56.388C57.1997 56.3903 57.8967 56.1536 58.554 55.6915C59.9077 54.7401 59.7665 52.5152 58.3083 51.7244C57.4764 51.2732 56.618 51.0482 55.6648 51.0569C52.0539 51.09 48.4427 51.0752 44.8319 51.1123C44.2486 51.1183 44.0604 50.8932 44.1303 50.3783C44.2225 49.6997 44.3521 49.0262 44.4529 48.3487C44.5356 47.7934 44.9269 47.7354 45.3761 47.7343C47.1668 47.7299 48.9576 47.7034 50.7481 47.7153C53.2249 47.7319 55.6995 47.7029 58.1731 47.5589C59.7763 47.4656 60.7487 46.5936 60.8946 45.0639C61.0006 43.9521 60.0713 42.8257 58.7446 42.4395C58.3087 42.3126 57.8685 42.2801 57.4182 42.2812C54.1053 42.2889 50.7925 42.2926 47.4796 42.293C46.1804 42.2931 45.8172 41.8945 46.0273 40.6245C46.313 38.898 46.6432 37.179 46.9456 35.4553C47.1761 34.1414 47.3832 32.8234 47.6192 31.5105C47.8057 30.4729 48.0455 30.3817 48.9839 30.7953C51.4127 31.8659 53.5471 33.4804 55.9309 34.6056C58.7656 35.9437 61.3812 37.6502 64.141 39.1018C64.9627 39.5341 65.8469 39.8974 66.7049 40.2861C67.3716 40.5881 67.5101 41.0112 67.4085 41.6295C67.1964 42.9205 66.9664 44.2086 66.7608 45.5006C66.2465 48.7331 65.6584 51.9561 65.0364 55.1654C64.7467 56.6597 64.4641 58.167 64.1672 59.6655C63.7914 61.5619 63.4237 63.4627 63.1466 65.3752C62.899 67.0846 62.8075 67.1667 61.3738 66.252C61.2983 66.2038 61.222 66.157 61.0895 66.0778Z" fill="#164265"/>
<path d="M55.4177 26.8373C56.4246 26.376 57.4783 26.2163 58.3662 25.6345C58.6944 25.4194 59.0363 25.511 59.3676 25.7235C62.4231 27.6831 65.7111 29.2308 68.8464 31.0545C71.2056 32.4269 73.6783 33.613 76.0288 35.015C76.484 35.2865 76.9952 35.4626 77.4701 35.7034C77.6562 35.7977 77.8197 35.9525 77.8029 36.1938C77.7839 36.4667 77.5502 36.4655 77.3557 36.5405C75.1084 37.4066 72.861 38.273 70.6235 39.1641C69.8776 39.4611 69.0925 39.6267 68.3356 39.8873C67.5327 40.1637 66.8182 39.491 66.1263 39.1567C63.6657 37.968 61.3513 36.5017 58.8999 35.2831C56.6657 34.1724 54.4663 32.9841 52.3211 31.7002C51.6143 31.2772 50.8193 31.0041 50.0872 30.6194C49.816 30.477 49.4549 30.3285 49.4465 29.9409C49.4365 29.4831 49.8495 29.3927 50.1631 29.2474C51.8908 28.4468 53.6231 27.6563 55.4177 26.8373Z" fill="#164265"/>
<path d="M77.8041 21.2302C81.2209 23.1272 84.6054 24.9496 87.9736 26.7978C89.6893 27.7393 91.389 28.7315 93.143 29.612C93.3757 29.7288 93.6936 29.7988 93.6724 30.1394C93.6537 30.4411 93.4073 30.6067 93.148 30.6951C90.3903 31.6357 87.649 32.6187 84.9675 33.763C84.6334 33.9055 84.3339 33.7478 84.0395 33.5789C80.5252 31.5624 76.9417 29.6664 73.3812 27.7386C70.9743 26.4355 68.6046 25.0707 66.2157 23.7381C65.9626 23.5969 65.6533 23.5195 65.5095 23.1499C66.571 22.4358 67.8003 22.0686 68.9597 21.5741C70.6296 20.8619 72.3537 20.2776 74.041 19.6045C74.5082 19.4182 74.8879 19.448 75.3021 19.7108C76.1075 20.2218 76.93 20.7061 77.8041 21.2302Z" fill="#164265"/>
<path d="M26.3679 46.7292C25.5928 46.7241 24.9035 46.7599 24.2219 46.7036C23.2625 46.6244 22.6087 45.8999 22.6077 45.004C22.6065 44.0316 23.1697 43.5272 24.2453 43.3956C25.4721 43.2454 26.6886 43.4182 27.9098 43.4129C37.1882 43.3729 46.4666 43.3407 55.745 43.3155C56.6087 43.3131 57.4724 43.395 58.3364 43.4029C59.1817 43.4105 59.5825 43.8714 59.7015 44.6471C59.8487 45.6057 59.5203 46.2559 58.7499 46.5353C58.2073 46.732 57.6383 46.7326 57.0698 46.7325C46.8656 46.7305 36.6613 46.7299 26.3679 46.7292Z" fill="#F67C0F"/>
<path d="M57.9873 52.717C58.8427 54.3928 58.2927 55.4935 56.5365 55.515C52.009 55.5703 47.479 55.4758 42.9529 55.5725C39.0159 55.6567 35.0799 55.6146 31.1438 55.6584C30.6399 55.664 30.1278 55.6366 29.6322 55.5508C28.4671 55.3491 28.0221 54.7662 28.107 53.6383C28.1813 52.6524 28.8572 52.0686 30.0204 52.0666C33.5999 52.0604 37.1794 52.0802 40.7588 52.0832C45.9789 52.0877 51.1991 52.0904 56.4192 52.0822C57.0152 52.0813 57.5468 52.1756 57.9873 52.717Z" fill="#F67C0F"/>
<path d="M40.6949 64.2601C39.594 64.2146 38.5756 64.3645 37.5699 64.16C36.5336 63.9493 35.9669 63.2994 36.0305 62.4043C36.0876 61.6006 36.7922 60.9302 37.7023 60.8111C39.5748 60.5659 41.455 60.7662 43.3284 60.7679C46.2224 60.7706 49.1148 60.7676 52.0069 60.6703C52.4872 60.6542 52.9552 60.6819 53.4279 60.7808C54.586 61.0231 55.0175 61.5607 54.9837 62.7775C54.9619 63.5624 54.5053 63.9601 53.4005 64.1475C52.0658 64.3738 50.7195 64.2433 49.3792 64.2549C46.5145 64.2796 43.6493 64.2607 40.6949 64.2601Z" fill="#F67C0F"/>
<path d="M9.59582 43.4043C11.586 43.4086 13.4925 43.392 15.3983 43.4205C16.5071 43.437 17.0806 43.951 17.1801 44.908C17.2636 45.7107 16.6846 46.3696 15.677 46.6016C15.4461 46.6548 15.2047 46.7078 14.9711 46.6971C12.4438 46.581 9.91814 46.4595 7.38515 46.5355C6.63494 46.558 6.15153 45.9286 6.09606 45.0937C6.03538 44.1802 6.41992 43.5711 7.19785 43.4021C7.96609 43.2352 8.74031 43.3443 9.59582 43.4043Z" fill="#F67C0F"/>
<path d="M29.4462 64.17C27.2595 64.3242 25.1464 64.2645 23.0366 64.219C22.3301 64.2037 21.5268 64.1603 21.2203 63.2339C20.9668 62.4679 21.129 61.8418 21.6452 61.26C21.9985 60.8618 22.4584 60.8035 22.9451 60.8037C25.0276 60.8047 27.1101 60.8015 29.1925 60.8078C30.4382 60.8116 31.1023 61.3769 31.1797 62.4779C31.2477 63.4441 30.7942 63.9035 29.4462 64.17Z" fill="#F67C0F"/>
<path d="M22.3192 53.8603C22.0288 55.1757 21.6952 55.4967 20.4451 55.5182C18.568 55.5505 16.6895 55.5519 14.8123 55.5202C13.6745 55.5009 13.0776 54.8926 13.0276 53.8294C12.9824 52.8677 13.5555 52.1969 14.6995 52.1521C16.693 52.0741 18.6921 52.0713 20.6868 52.1215C21.6957 52.1469 22.0976 52.6481 22.3192 53.8603Z" fill="#F67C0F"/>
<path d="M254.03 39.0252C252.477 37.2849 250.69 35.991 248.748 34.8911C247.155 33.9885 246.878 31.2564 248.324 30.1475C251.376 27.8079 254.477 25.531 257.563 23.2353C257.688 23.1423 257.866 23.1204 258.011 23.0684C258.895 24.5243 258.547 26.9471 257.283 27.8799C255.374 29.2887 253.427 30.6466 251.402 32.0932C252.444 33.1278 253.613 33.7762 254.614 34.6299C257.095 36.7446 257.85 39.4055 257.442 42.495C257.254 43.9208 256.34 44.9209 255.13 45.6021C254.059 46.2056 252.859 46.4563 251.63 46.4859C250.415 46.5151 249.199 46.4707 247.985 46.5129C246.683 46.5581 245.471 46.3811 244.461 45.313C242.524 46.7744 240.55 46.9426 238.564 45.4945C238.099 45.1554 237.791 45.5077 237.44 45.7104C234.335 47.5015 231.194 45.8982 230.917 42.3369C230.854 41.5307 230.581 41.1871 229.786 41.2325C229.284 41.2611 228.773 41.199 228.28 41.271C227.505 41.3841 227.211 41.7615 227.564 42.5895C229.191 46.414 227.442 48.7493 224.07 49.6014C221.634 50.2171 219.209 50.2951 217.107 48.6767C215.754 47.6357 214.911 46.2423 214.768 44.4233C214.647 42.8693 214.742 41.3377 214.795 39.7944C214.861 37.8763 214.964 37.7561 216.917 37.8216C217.124 37.8286 217.33 37.8642 217.58 37.8912C217.871 38.6299 217.739 39.3585 217.603 40.0958C217.397 41.2164 217.433 42.3334 217.594 43.4662C217.737 44.4758 218.317 45.0562 219.188 45.3777C220.925 46.0185 222.708 46.0585 224.495 45.6035C225.243 45.4132 225.474 44.8337 225.337 44.1429C225.199 43.4488 224.966 42.7731 224.768 42.0913C224.149 39.9548 225.196 38.128 227.329 37.5767C229.211 37.0902 231.079 37.5058 232.952 37.6166C233.636 37.6571 233.7 38.1871 233.721 38.7077C233.753 39.5024 233.727 40.3013 233.796 41.0922C233.876 42.0047 234.439 42.3969 235.343 42.3529C236.241 42.3091 236.74 41.917 236.725 40.955C236.707 39.8663 236.766 38.7761 236.739 37.6878C236.707 36.4249 237.583 36.5915 238.378 36.5706C239.192 36.5492 239.909 36.5694 239.856 37.713C239.808 38.758 239.904 39.8101 239.847 40.8541C239.788 41.9143 240.358 42.2584 241.271 42.344C242.24 42.4348 242.836 42.0037 242.904 41.0463C242.983 39.9202 242.953 38.7862 242.962 37.6556C242.969 36.9014 242.958 36.1472 242.962 35.393C242.969 33.9834 243.159 33.8343 244.563 33.881C245.345 33.907 245.693 34.1944 245.675 35.0143C245.637 36.6894 245.65 38.3663 245.672 40.042C245.695 41.8 246.256 42.3446 248.037 42.3639C249.336 42.378 250.635 42.3731 251.934 42.3596C254.682 42.3309 255.09 41.7075 254.03 39.0252Z" fill="#164265"/>
<path d="M104.921 40.4125C104.918 36.6451 104.945 33.0029 104.896 29.3618C104.881 28.2332 105.162 27.8399 106.403 27.9202C108.905 28.0821 111.422 28.0182 113.933 28.0479C115.467 28.0661 116.939 28.3841 118.236 29.2074C121.408 31.2214 121.813 35.0989 119.169 37.7773C118.994 37.9551 118.802 38.1174 118.623 38.283C118.649 38.377 118.648 38.4967 118.694 38.5181C121.618 39.9006 122.014 42.8732 121.508 45.0894C120.901 47.7469 118.614 49.4593 115.695 49.5103C112.514 49.5659 109.332 49.5093 106.151 49.5534C105.232 49.5661 104.89 49.2586 104.906 48.3238C104.95 45.7293 104.921 43.1335 104.921 40.4125ZM114.424 45.1255C116.17 44.7578 116.637 44.1959 116.492 42.6373C116.388 41.5183 115.592 40.9838 114.003 40.971C113.295 40.9653 112.587 40.9649 111.879 40.9675C109.737 40.9755 109.738 40.9765 109.792 43.0462C109.801 43.3792 109.818 43.7143 109.793 44.0455C109.733 44.837 109.914 45.2418 110.876 45.2567C112.001 45.2741 113.117 45.3615 114.424 45.1255ZM113.605 32.6409C112.66 32.3881 111.693 32.4638 110.733 32.4426C110.124 32.4291 109.838 32.6878 109.77 33.3208C109.433 36.4491 109.62 36.6705 112.74 36.6265C112.907 36.6241 113.075 36.6283 113.242 36.6216C114.819 36.5583 115.347 36.1777 115.495 35.0029C115.66 33.6846 115.285 33.1731 113.605 32.6409Z" fill="#164265"/>
<path d="M180.605 49.0926C176.36 47.2527 174.307 42.1664 174.708 37.9943C174.987 35.0971 175.945 32.5184 178.145 30.4131C181.93 26.793 189.864 26.922 193.132 30.7531C193.621 31.3255 193.798 31.7239 193.159 32.3215C192.4 33.0295 191.882 34.1592 191.012 34.5393C189.993 34.9847 189.216 33.7294 188.284 33.3126C186.079 32.3265 183.822 32.5978 182.093 34.1717C180.239 35.8588 179.606 38.6287 180.445 41.0833C181.69 44.7232 184.692 45.6797 187.966 44.8833C188.783 44.6846 188.833 44.0441 188.844 43.4169C188.856 42.7387 188.403 42.519 187.774 42.456C185.327 42.2113 185.395 42.1976 185.344 39.7025C185.319 38.4504 185.707 38.0173 186.977 38.0055C188.859 37.9882 190.74 37.8689 192.625 37.9881C193.503 38.0437 193.864 38.4424 193.85 39.3452C193.812 41.6908 193.844 44.0375 193.847 46.3838C193.847 46.9966 193.721 47.5479 193.141 47.8964C189.186 50.2728 185.066 50.973 180.605 49.0926Z" fill="#F77909"/>
<path d="M157.59 58.9455C167.458 60.1494 177.256 60.0265 187.057 60.0529C194.567 60.0731 202.047 59.662 209.502 58.8831C215.866 58.2183 222.184 57.1781 228.379 55.5334C230.308 55.0212 232.238 54.4554 233.989 53.4287C234.398 53.1894 234.89 53.0939 235.392 52.915C235.482 53.7814 234.93 54.0027 234.477 54.2551C230.293 56.5894 225.893 58.3855 221.257 59.6206C215.899 61.0479 210.43 61.7106 204.938 62.3817C196.202 63.4493 187.446 63.2388 178.71 62.9675C167.644 62.6238 156.723 60.8625 145.903 58.517C143.649 58.0286 141.449 57.36 139.24 56.7231C138.663 56.5569 138.027 56.3869 137.696 55.5931C144.21 57.2321 150.85 58.0446 157.59 58.9455Z" fill="#F77909"/>
<path d="M157.562 34.9051C157.378 34.5627 157.234 34.3064 157.104 34.0437C156.747 33.3224 156.937 32.9173 157.778 32.8991C157.862 32.8973 157.946 32.8996 158.03 32.8967C161.928 32.7607 162.636 33.2706 163.56 37.5878C163.977 39.5357 165.282 41.1193 165.398 43.4219C166.093 42.6275 166.275 41.9227 166.439 41.2875C167.045 38.9398 167.936 36.6886 168.657 34.3814C168.956 33.4242 169.463 32.8931 170.546 32.9722C171.292 33.0267 172.051 32.8852 172.803 32.9005C174.016 32.9251 174.185 33.2092 173.735 34.3814C173.243 35.6645 172.782 36.974 172.243 38.2215C171.345 40.2956 170.732 42.4673 169.822 44.5359C168.886 46.6632 168.254 48.9222 167.414 51.0948C166.637 53.1061 165.639 54.9549 163.439 55.8117C161.357 56.6231 159.431 56.1587 157.54 55.2295C156.935 54.9323 156.807 54.4896 157.17 53.89C157.471 53.3911 157.705 52.8519 157.994 52.3449C158.498 51.4609 158.896 50.4999 160.227 51.5081C160.918 52.0309 161.775 51.6613 162.386 51.0445C162.938 50.4871 163.191 49.944 162.835 49.0499C161.125 44.7502 159.518 40.4092 157.885 36.0789C157.753 35.7303 157.699 35.3525 157.562 34.9051Z" fill="#164265"/>
<path d="M138.799 46.2658C136.039 51.2375 127.983 51.186 125.002 46.8155C123.173 44.1346 122.897 41.3617 123.807 38.261C125.414 32.7899 132.085 31.1652 136.26 33.7082C139.573 35.7254 141.286 40.8638 139.696 44.5106C139.446 45.0835 139.118 45.6224 138.799 46.2658ZM128.663 39.1403C128.276 40.4076 128.376 41.7086 128.525 42.9816C128.667 44.2038 130.113 45.3584 131.346 45.421C133.364 45.5234 134.671 44.3443 135.11 42.0254C135.431 40.3262 134.398 38.0291 133.039 37.4198C131.454 36.7097 129.981 37.2429 128.663 39.1403Z" fill="#164265"/>
<path d="M207.275 33.3592C209.498 34.3189 210.992 36.0292 211.633 38.0961C213.096 42.8107 211.691 47.8258 206.432 49.6131C203.671 50.5516 201.055 50.2497 198.693 48.542C195.75 46.4146 195.221 43.3495 195.512 39.9715C195.992 34.4128 202.054 31.4692 207.275 33.3592ZM207.125 40.9769C207.065 40.0712 206.707 39.2833 206.172 38.5658C205 36.9942 202.417 37.0379 201.322 38.6473C200.152 40.367 200.189 42.745 201.414 44.4104C202.565 45.9761 204.787 46.2412 205.944 44.8626C206.815 43.8246 207.392 42.6139 207.125 40.9769Z" fill="#F77909"/>
<path d="M269.98 41.1977C269.995 42.0977 270.401 42.4064 271.185 42.3712C272.062 42.3318 272.943 42.3472 273.822 42.3621C274.925 42.3807 275.431 41.8416 275.425 40.7524C275.416 38.9106 275.467 37.0673 275.409 35.2274C275.374 34.142 275.88 33.8682 276.85 33.8624C277.845 33.8564 278.326 34.1937 278.279 35.2484C278.162 37.8765 278.51 40.5241 277.947 43.1334C277.489 45.2496 276.223 46.3483 274.035 46.4763C273.075 46.5325 272.109 46.5306 271.147 46.5039C270.446 46.4843 270.135 46.7713 269.915 47.4494C269.444 48.9021 269.093 50.3781 268.048 51.6359C266.102 53.9784 262.271 53.5287 260.281 52.516C260.089 52.4178 259.881 52.1391 259.868 51.9325C259.796 50.7786 259.707 49.6177 259.909 48.4253C262.577 48.8653 265.473 50.6267 267.151 46.9419C266.755 46.3407 266.242 46.4095 265.814 46.3459C262.705 45.8847 261.661 44.9322 261.428 41.8976C261.232 39.3351 261.809 36.9524 264.085 35.3877C265.442 34.4551 266.77 34.8191 267.84 36.0657C269.097 37.5296 269.39 39.3637 269.98 41.1977ZM266.842 40.9032C266.597 40.47 266.368 40.0264 266.102 39.6065C265.842 39.1969 265.412 39.0181 265.042 39.3422C264.344 39.9529 263.926 40.7837 264.342 41.6787C264.813 42.6926 265.842 42.4677 266.663 42.3087C267.422 42.162 267.014 41.5392 266.842 40.9032Z" fill="#164265"/>
<path d="M152.308 49.6832C151.194 49.784 150.601 49.1833 150.292 48.362C149.889 47.2882 149.05 46.4938 148.576 45.1709C147.694 46.4802 146.871 47.5671 146.201 48.7413C145.755 49.5233 145.234 49.7686 144.368 49.6732C143.373 49.5637 142.362 49.6019 141.359 49.5682C141.036 49.5573 140.646 49.6529 140.488 49.2494C140.366 48.939 140.587 48.7046 140.754 48.4574C142.27 46.2081 143.764 43.9432 145.3 41.7073C145.601 41.2691 145.509 40.9918 145.257 40.5932C143.855 38.3734 142.484 36.1338 141.102 33.9015C140.968 33.686 140.832 33.4734 140.993 32.9959C142.588 32.9997 144.282 32.7182 145.922 33.0773C146.71 33.2496 147.143 34.195 147.501 34.9449C147.782 35.5331 148.141 36.009 148.672 36.4705C149.354 36.0474 149.787 35.3913 150.034 34.7293C150.532 33.397 151.368 32.8605 152.785 32.9095C153.899 32.9481 155.005 32.9309 156.264 33.1814C155.854 34.3146 155.043 35.0755 154.554 36.0149C153.943 37.1899 153.141 38.2779 152.328 39.3319C151.474 40.4395 151.578 41.3972 152.36 42.5037C153.681 44.3733 154.895 46.3194 156.154 48.2334C156.395 48.6012 156.48 48.9956 156.34 49.5066C155.059 49.7897 153.722 49.5332 152.308 49.6832Z" fill="#164265"/>
<path d="M223.744 50.9146C225.933 50.9044 225.933 50.9044 225.955 52.4212C225.98 54.2031 225.851 54.3179 224.034 54.2741C223.365 54.258 222.643 54.21 222.729 53.3453C222.815 52.4898 222.032 51.2315 223.744 50.9146Z" fill="#164265"/>
<path d="M218.937 53.8658C218.868 53.3447 218.833 52.9273 218.832 52.5097C218.829 50.9304 218.869 50.8795 220.437 50.9144C220.946 50.9257 221.664 50.6927 221.834 51.4055C222.034 52.2448 222.314 53.3183 221.68 53.9259C220.969 54.6079 219.899 54.4016 218.937 53.8658Z" fill="#164265"/>
<path d="M275.976 51.073C274.329 50.7729 275.089 49.5684 274.997 48.7464C274.905 47.9182 275.574 47.8921 276.2 47.877C277.915 47.8354 278.8 49.1195 278.024 50.6798C277.615 51.5041 276.736 50.926 275.976 51.073Z" fill="#164265"/>
</svg>
