<svg width="22" height="22" viewBox="0 0 22 22" fill="none" xmlns="http://www.w3.org/2000/svg">
<path d="M11 5.90332V8.95582" stroke="#0C0C0C" stroke-width="1.375" stroke-miterlimit="10" stroke-linecap="round"/>
<path d="M11.0174 1.83398C7.64402 1.83398 4.91235 4.56565 4.91235 7.93899V9.86399C4.91235 10.4873 4.65569 11.4223 4.33485 11.954L3.17069 13.8973C2.45569 15.0982 2.95069 16.4365 4.27069 16.8765C8.65235 18.334 13.3915 18.334 17.7732 16.8765C19.0107 16.464 19.5424 15.0157 18.8732 13.8973L17.709 11.954C17.3882 11.4223 17.1315 10.4782 17.1315 9.86399V7.93899C17.1224 4.58398 14.3724 1.83398 11.0174 1.83398Z" stroke="#0C0C0C" stroke-width="1.375" stroke-miterlimit="10" stroke-linecap="round"/>
<path d="M14.0518 17.252C14.0518 18.9295 12.6768 20.3045 10.9993 20.3045C10.1652 20.3045 9.39517 19.9561 8.84517 19.4061C8.29517 18.8561 7.94684 18.0861 7.94684 17.252" stroke="#0C0C0C" stroke-width="1.375" stroke-miterlimit="10"/>
</svg>
