<svg width="22" height="22" viewBox="0 0 22 22" fill="none" xmlns="http://www.w3.org/2000/svg">
<path d="M7.33337 10.4506C7.33337 11.1564 7.88337 11.7339 8.55254 11.7339H9.92754C10.5142 11.7339 10.9909 11.2298 10.9909 10.6156C10.9909 9.94642 10.6975 9.70809 10.2667 9.55225L8.06671 8.78225C7.62671 8.62642 7.33337 8.38809 7.33337 7.71892C7.33337 7.10475 7.81004 6.60059 8.39671 6.60059H9.77171C10.45 6.60975 11 7.17809 11 7.88392" stroke="#C2DDFF" stroke-width="1.5" stroke-linecap="round" stroke-linejoin="round"/>
<path d="M9.16663 11.7793V12.4576" stroke="#C2DDFF" stroke-width="1.5" stroke-linecap="round" stroke-linejoin="round"/>
<path d="M9.16663 5.87598V6.59098" stroke="#C2DDFF" stroke-width="1.5" stroke-linecap="round" stroke-linejoin="round"/>
<path d="M9.15754 16.4813C13.2026 16.4813 16.4817 13.2022 16.4817 9.15717C16.4817 5.11215 13.2026 1.83301 9.15754 1.83301C5.11252 1.83301 1.83337 5.11215 1.83337 9.15717C1.83337 13.2022 5.11252 16.4813 9.15754 16.4813Z" stroke="#C2DDFF" stroke-width="1.5" stroke-linecap="round" stroke-linejoin="round"/>
<path opacity="0.4" d="M11.8983 18.2237C12.7233 19.3878 14.0708 20.1487 15.6108 20.1487C18.1133 20.1487 20.1483 18.1137 20.1483 15.6112C20.1483 14.0895 19.3966 12.742 18.2508 11.917" stroke="#C2DDFF" stroke-width="1.5" stroke-linecap="round" stroke-linejoin="round"/>
</svg>
