<svg width="20" height="20" viewBox="0 0 20 20" fill="none" xmlns="http://www.w3.org/2000/svg">
<path d="M18.333 4.99984V7.0165C18.333 8.33317 17.4997 9.1665 16.183 9.1665H13.333V3.3415C13.333 2.4165 14.0913 1.6665 15.0163 1.6665C15.9247 1.67484 16.758 2.0415 17.358 2.6415C17.958 3.24984 18.333 4.08317 18.333 4.99984Z" stroke="#5CA4FF" stroke-width="1.5" stroke-miterlimit="10" stroke-linecap="round" stroke-linejoin="round"/>
<path d="M1.66699 5.83317V17.4998C1.66699 18.1915 2.45032 18.5832 3.00032 18.1665L4.42533 17.0998C4.75866 16.8498 5.22533 16.8832 5.52533 17.1832L6.90866 18.5748C7.23366 18.8998 7.76699 18.8998 8.09199 18.5748L9.49199 17.1748C9.78366 16.8832 10.2503 16.8498 10.5753 17.0998L12.0003 18.1665C12.5503 18.5748 13.3337 18.1832 13.3337 17.4998V3.33317C13.3337 2.4165 14.0837 1.6665 15.0003 1.6665H5.83366H5.00033C2.50033 1.6665 1.66699 3.15817 1.66699 4.99984V5.83317Z" stroke="#5CA4FF" stroke-width="1.5" stroke-miterlimit="10" stroke-linecap="round" stroke-linejoin="round"/>
<path opacity="0.4" d="M5.22461 11.4416L9.77461 6.8916" stroke="#5CA4FF" stroke-width="1.5" stroke-linecap="round" stroke-linejoin="round"/>
<path opacity="0.4" d="M9.93748 11.2502H9.94497" stroke="#5CA4FF" stroke-width="2" stroke-linecap="round" stroke-linejoin="round"/>
<path opacity="0.4" d="M5.16233 7.08317H5.16982" stroke="#5CA4FF" stroke-width="2" stroke-linecap="round" stroke-linejoin="round"/>
</svg>
