<svg width="22" height="22" viewBox="0 0 22 22" fill="none" xmlns="http://www.w3.org/2000/svg">
<path d="M16.5 6.56301C16.445 6.55384 16.3808 6.55384 16.3258 6.56301C15.0608 6.51718 14.0525 5.48134 14.0525 4.19801C14.0525 2.88718 15.1067 1.83301 16.4175 1.83301C17.7283 1.83301 18.7825 2.89634 18.7825 4.19801C18.7733 5.48134 17.765 6.51718 16.5 6.56301Z" stroke="#C2DDFF" stroke-width="1.5" stroke-linecap="round" stroke-linejoin="round"/>
<path d="M15.5558 13.2365C16.8117 13.4473 18.1958 13.2273 19.1675 12.5765C20.46 11.7148 20.46 10.3032 19.1675 9.44149C18.1867 8.79066 16.7842 8.57065 15.5283 8.79065" stroke="#C2DDFF" stroke-width="1.5" stroke-linecap="round" stroke-linejoin="round"/>
<path d="M5.47244 6.56301C5.52744 6.55384 5.59161 6.55384 5.64661 6.56301C6.91161 6.51718 7.91994 5.48134 7.91994 4.19801C7.91994 2.88718 6.86578 1.83301 5.55494 1.83301C4.24411 1.83301 3.18994 2.89634 3.18994 4.19801C3.19911 5.48134 4.20744 6.51718 5.47244 6.56301Z" stroke="#C2DDFF" stroke-width="1.5" stroke-linecap="round" stroke-linejoin="round"/>
<path d="M6.41661 13.2365C5.16078 13.4473 3.77661 13.2273 2.80495 12.5765C1.51245 11.7148 1.51245 10.3032 2.80495 9.44149C3.78578 8.79066 5.18828 8.57065 6.44411 8.79065" stroke="#C2DDFF" stroke-width="1.5" stroke-linecap="round" stroke-linejoin="round"/>
<path opacity="0.4" d="M11 13.4107C10.945 13.4015 10.8808 13.4015 10.8258 13.4107C9.56082 13.3648 8.55249 12.329 8.55249 11.0457C8.55249 9.73483 9.60666 8.68066 10.9175 8.68066C12.2283 8.68066 13.2825 9.744 13.2825 11.0457C13.2733 12.329 12.265 13.374 11 13.4107Z" stroke="#C2DDFF" stroke-width="1.5" stroke-linecap="round" stroke-linejoin="round"/>
<path opacity="0.4" d="M8.33253 16.2981C7.04003 17.1598 7.04003 18.5714 8.33253 19.4331C9.7992 20.4139 12.2009 20.4139 13.6675 19.4331C14.96 18.5714 14.96 17.1598 13.6675 16.2981C12.21 15.3264 9.7992 15.3264 8.33253 16.2981Z" stroke="#C2DDFF" stroke-width="1.5" stroke-linecap="round" stroke-linejoin="round"/>
</svg>
