<svg width="20" height="20" viewBox="0 0 20 20" fill="none" xmlns="http://www.w3.org/2000/svg">
<path d="M8.74374 1.85781L4.58541 3.41614C3.62708 3.77448 2.84375 4.9078 2.84375 5.9328V12.1245C2.84375 13.1078 3.49376 14.3995 4.28543 14.9911L7.86875 17.6661C9.04375 18.5495 10.9771 18.5495 12.1521 17.6661L15.7354 14.9911C16.5271 14.3995 17.1771 13.1078 17.1771 12.1245V5.9328C17.1771 4.9078 16.3937 3.77448 15.4354 3.41614L11.2771 1.85781C10.5687 1.59948 9.43541 1.59948 8.74374 1.85781Z" stroke="#1E1E1E" stroke-width="1.5" stroke-linecap="round" stroke-linejoin="round"/>
<path opacity="0.4" d="M10.001 9.09937C9.96771 9.09937 9.92604 9.09937 9.89271 9.09937C9.10938 9.07437 8.48438 8.42436 8.48438 7.63269C8.48438 6.82436 9.14272 6.16602 9.95105 6.16602C10.7594 6.16602 11.4177 6.82436 11.4177 7.63269C11.4094 8.43269 10.7844 9.07437 10.001 9.09937Z" stroke="#1E1E1E" stroke-width="1.5" stroke-linecap="round" stroke-linejoin="round"/>
<path opacity="0.4" d="M8.34219 11.4328C7.54219 11.9661 7.54219 12.8411 8.34219 13.3745C9.25052 13.9828 10.7422 13.9828 11.6505 13.3745C12.4505 12.8411 12.4505 11.9661 11.6505 11.4328C10.7505 10.8245 9.25885 10.8245 8.34219 11.4328Z" stroke="#1E1E1E" stroke-width="1.5" stroke-linecap="round" stroke-linejoin="round"/>
</svg>
