<svg width="28" height="28" viewBox="0 0 28 28" fill="none" xmlns="http://www.w3.org/2000/svg">
<path d="M21.9374 7.99995C21.9374 9.34619 20.8462 10.4375 19.5 10.4375C18.1537 10.4375 17.0625 9.34619 17.0625 7.99995C17.0625 6.65386 18.1537 5.5625 19.5 5.5625C20.8462 5.5625 21.9374 6.65386 21.9374 7.99995Z" fill="#338DFF"/>
<path d="M19.5 11C17.8454 11 16.5 9.65451 16.5 7.99995C16.5 6.34554 17.8454 5 19.5 5C21.1545 5 22.4999 6.34554 22.4999 7.99995C22.4999 9.65451 21.1545 11 19.5 11ZM19.5 6.125C18.4657 6.125 17.625 6.96657 17.625 7.99995C17.625 9.03348 18.4657 9.87505 19.5 9.87505C20.5342 9.87505 21.3749 9.03348 21.3749 7.99995C21.3749 6.96657 20.5342 6.125 19.5 6.125ZM21.9374 20C21.9374 21.3461 20.8462 22.4375 19.5 22.4375C18.1537 22.4375 17.0625 21.3461 17.0625 20C17.0625 18.6538 18.1537 17.5625 19.5 17.5625C20.8462 17.5625 21.9374 18.6538 21.9374 20Z" fill="#338DFF"/>
<path d="M19.5 23C17.8454 23 16.5 21.6544 16.5 20C16.5 18.3454 17.8455 16.9999 19.5 16.9999C21.1545 16.9999 22.5 18.3454 22.5 20C22.5 21.6544 21.1545 23 19.5 23ZM19.5 18.1249C18.4658 18.1249 17.625 18.9665 17.625 20C17.625 21.0334 18.4658 21.875 19.5 21.875C20.5342 21.875 21.375 21.0334 21.375 20C21.375 18.9665 20.5342 18.1249 19.5 18.1249ZM11.4375 14C11.4375 15.3462 10.3462 16.4374 8.99995 16.4374C7.65386 16.4374 6.5625 15.3462 6.5625 14C6.5625 12.6537 7.65386 11.5625 8.99995 11.5625C10.3462 11.5625 11.4375 12.6537 11.4375 14Z" fill="#338DFF"/>
<path d="M8.99995 16.9999C7.34554 16.9999 6 15.6545 6 14C6 12.3454 7.34554 11 8.99995 11C10.6545 11 12 12.3454 12 14C12 15.6545 10.6545 16.9999 8.99995 16.9999ZM8.99995 12.125C7.96573 12.125 7.125 12.9664 7.125 14C7.125 15.0335 7.96573 15.8749 8.99995 15.8749C10.0343 15.8749 10.875 15.0335 10.875 14C10.875 12.9664 10.0343 12.125 8.99995 12.125Z" fill="#338DFF"/>
<path d="M10.7703 13.6403C10.5092 13.6403 10.2557 13.5045 10.1177 13.2616C9.91292 12.9023 10.039 12.444 10.3983 12.2385L17.3574 8.27103C17.7167 8.06477 18.1749 8.19084 18.3805 8.55147C18.5853 8.9107 18.4592 9.36899 18.0999 9.57455L11.1407 13.542C11.0279 13.6065 10.9002 13.6404 10.7703 13.6403ZM17.7288 19.8278C17.6027 19.8278 17.4752 19.7962 17.3582 19.7295L10.399 15.7621C10.0397 15.5573 9.9138 15.099 10.1186 14.739C10.3225 14.379 10.7815 14.2523 11.1415 14.4585L18.1008 18.426C18.4601 18.6307 18.586 19.089 18.3812 19.4491C18.2425 19.692 17.989 19.8278 17.7288 19.8278H17.7288Z" fill="#338DFF"/>
</svg>
