<svg width="22" height="22" viewBox="0 0 22 22" fill="none" xmlns="http://www.w3.org/2000/svg">
<path d="M7.33203 1.83398V4.58398" stroke="white" stroke-width="1.5" stroke-miterlimit="10" stroke-linecap="round" stroke-linejoin="round"/>
<path d="M14.668 1.83398V4.58398" stroke="white" stroke-width="1.5" stroke-miterlimit="10" stroke-linecap="round" stroke-linejoin="round"/>
<path opacity="0.4" d="M3.20703 8.33203H18.7904" stroke="white" stroke-width="1.5" stroke-miterlimit="10" stroke-linecap="round" stroke-linejoin="round"/>
<path d="M16.874 13.6719C18.6432 13.6719 20.0789 15.1069 20.0791 16.876C20.0791 18.6452 18.6433 20.0811 16.874 20.0811C15.1049 20.0809 13.6699 18.6451 13.6699 16.876C13.6701 15.107 15.1051 13.6721 16.874 13.6719Z" stroke="white" stroke-width="1.2" stroke-linecap="round" stroke-linejoin="round"/>
<path opacity="0.4" d="M17.844 17.705L17.0365 17.2231C16.8959 17.1397 16.7812 16.9391 16.7812 16.775V15.707" stroke="white" stroke-width="1.2" stroke-linecap="round" stroke-linejoin="round"/>
<path d="M11 20.1673H7.33333C4.125 20.1673 2.75 18.334 2.75 15.584V7.79232C2.75 5.04232 4.125 3.20898 7.33333 3.20898H14.6667C17.875 3.20898 19.25 5.04232 19.25 7.79232V11.0007" stroke="white" stroke-width="1.5" stroke-miterlimit="10" stroke-linecap="round" stroke-linejoin="round"/>
<path opacity="0.4" d="M10.9963 12.5579H11.0045" stroke="white" stroke-width="2" stroke-linecap="round" stroke-linejoin="round"/>
<path opacity="0.4" d="M7.60174 12.5579H7.60997" stroke="white" stroke-width="2" stroke-linecap="round" stroke-linejoin="round"/>
<path opacity="0.4" d="M7.60156 15.3086H7.6098" stroke="white" stroke-width="2" stroke-linecap="round" stroke-linejoin="round"/>
</svg>
