<svg width="48" height="26" viewBox="0 0 48 26" fill="none" xmlns="http://www.w3.org/2000/svg">
<path d="M36.3164 24.1562C35.9431 24.1612 35.6467 24.299 35.3475 24.423C34.299 24.8575 33.2523 25.2964 32.2032 25.7292C32.0259 25.8023 31.8456 25.8916 31.6136 25.8123C31.4375 25.2798 31.6255 24.7426 31.7827 24.2632C32.033 23.4998 32.1055 22.7153 32.2505 21.9404C32.6048 20.047 32.9698 18.1543 33.2599 16.2506C33.4552 14.9696 33.6823 13.6944 33.8789 12.4141C33.9578 11.9002 34.1446 11.5678 34.6957 11.3626C36.1336 10.8271 37.6268 10.4351 39.0057 9.74314C39.1272 9.68218 39.2573 9.65602 39.3694 9.75834C39.4744 9.85421 39.4033 9.96748 39.3835 10.0763C39.1598 11.3017 38.9372 12.5272 38.7183 13.7534C38.7017 13.8461 38.7161 13.9444 38.7161 14.0822C39.3438 13.8346 39.6835 13.2526 40.2438 12.9651C40.8828 12.6373 41.4744 13.1677 42.1253 13.0029C42.332 12.4298 42.3197 11.8048 42.447 11.2073C42.6221 10.386 42.7312 9.55057 42.8639 8.72043C42.906 8.45757 43.0951 8.35628 43.3086 8.25433C44.6257 7.62539 46.0305 7.21596 47.3649 6.62978C47.5207 6.56135 47.6666 6.42994 47.8629 6.45796C48.0623 6.60601 47.9953 6.80998 47.9626 6.99391C47.3168 10.6269 46.6668 14.2591 46.0178 17.8915C45.9011 18.545 45.7718 19.1966 45.6733 19.8528C45.6068 20.2959 45.4263 20.5502 44.9578 20.7025C44.1753 20.9569 43.4467 21.3747 42.6674 21.6422C40.523 22.3784 38.4354 23.2531 36.3164 24.1562Z" fill="white"/>
<path d="M29.9133 25.3389C29.1094 24.883 28.4038 24.3244 27.5457 24.0353C27.2661 23.9411 27.1199 23.782 27.2045 23.4075C27.3468 22.7782 26.6673 22.0089 25.9932 21.9544C25.7995 21.9387 25.5989 21.9176 25.41 21.9495C24.1889 22.1558 23.2182 21.5731 22.2499 20.9717C21.8968 20.7524 21.5376 20.5429 21.1883 20.3332C21.2474 20.059 21.4309 20.0774 21.6129 20.0771C23.527 20.0744 25.4412 20.0635 27.3553 20.0691C27.7978 20.0703 28.1769 19.9416 28.5344 19.6903C29.2706 19.1728 29.1938 17.9628 28.4008 17.5327C27.9483 17.2874 27.4815 17.165 26.9631 17.1697C24.9993 17.1877 23.0353 17.1797 21.0716 17.1999C20.7544 17.2031 20.652 17.0807 20.6901 16.8007C20.7402 16.4316 20.8106 16.0654 20.8655 15.6969C20.9104 15.3949 21.1233 15.3633 21.3676 15.3627C22.3414 15.3603 23.3153 15.3459 24.2891 15.3524C25.6361 15.3614 26.982 15.3456 28.3272 15.2673C29.1991 15.2166 29.728 14.7423 29.8074 13.9104C29.865 13.3058 29.3596 12.6932 28.6381 12.4832C28.401 12.4141 28.1616 12.3965 27.9167 12.397C26.115 12.4012 24.3133 12.4032 22.5116 12.4034C21.805 12.4035 21.6074 12.1868 21.7217 11.496C21.8771 10.5571 22.0567 9.62222 22.2211 8.68477C22.3465 7.9702 22.4591 7.25337 22.5875 6.53936C22.6889 5.97508 22.8193 5.92547 23.3297 6.15041C24.6506 6.73263 25.8114 7.61069 27.1078 8.22265C28.6495 8.95037 30.072 9.87847 31.5729 10.6679C32.0198 10.903 32.5007 11.1006 32.9673 11.312C33.3299 11.4763 33.4052 11.7063 33.35 12.0426C33.2346 12.7447 33.1095 13.4453 32.9977 14.1479C32.718 15.9059 32.3981 17.6588 32.0599 19.4041C31.9023 20.2169 31.7486 21.0366 31.5871 21.8515C31.3828 22.8829 31.1828 23.9167 31.0321 24.9568C30.8974 25.8865 30.8477 25.9311 30.0679 25.4336C30.0269 25.4074 29.9854 25.382 29.9133 25.3389Z" fill="white"/>
<path d="M26.8278 3.99732C27.3754 3.74641 27.9484 3.65958 28.4313 3.34315C28.6098 3.22618 28.7958 3.27597 28.9759 3.39153C30.6377 4.45728 32.4259 5.29901 34.131 6.29085C35.4141 7.03719 36.7588 7.68228 38.0372 8.44473C38.2847 8.59239 38.5628 8.68818 38.821 8.81912C38.9223 8.87044 39.0112 8.95463 39.002 9.08583C38.9917 9.23428 38.8646 9.23362 38.7588 9.27438C37.5366 9.74542 36.3144 10.2167 35.0975 10.7012C34.6919 10.8628 34.2649 10.9528 33.8532 11.0946C33.4165 11.2449 33.028 10.879 32.6517 10.6973C31.3135 10.0507 30.0548 9.25333 28.7216 8.59057C27.5065 7.98649 26.3104 7.34026 25.1437 6.64201C24.7593 6.41196 24.3269 6.2634 23.9288 6.05421C23.7813 5.97673 23.5849 5.89598 23.5803 5.68516C23.5749 5.43621 23.7995 5.38705 23.97 5.30802C24.9096 4.87262 25.8518 4.44273 26.8278 3.99732Z" fill="white"/>
<path d="M39.0047 0.948967C40.8629 1.98064 42.7036 2.97176 44.5354 3.97692C45.4685 4.48894 46.3929 5.02854 47.3468 5.50743C47.4733 5.57094 47.6462 5.60902 47.6347 5.79425C47.6245 5.9583 47.4906 6.04836 47.3495 6.09647C45.8497 6.60802 44.3588 7.14263 42.9005 7.76492C42.7188 7.84244 42.5559 7.75667 42.3958 7.66481C40.4846 6.56814 38.5357 5.53698 36.5993 4.48858C35.2903 3.77988 34.0015 3.03762 32.7023 2.31289C32.5646 2.23609 32.3964 2.194 32.3182 1.99297C32.8955 1.60459 33.5641 1.4049 34.1946 1.13596C35.1028 0.748628 36.0405 0.430863 36.9581 0.0648201C37.2122 -0.0365338 37.4187 -0.0203241 37.644 0.12259C38.082 0.400543 38.5293 0.66393 39.0047 0.948967Z" fill="white"/>
<path d="M11.0301 14.8166C10.6086 14.8138 10.2337 14.8333 9.86301 14.8026C9.34125 14.7595 8.98568 14.3655 8.98511 13.8783C8.98449 13.3494 9.29076 13.0751 9.87573 13.0035C10.5429 12.9219 11.2045 13.0159 11.8687 13.013C16.9148 12.9912 21.9608 12.9737 27.0069 12.96C27.4767 12.9587 27.9464 13.0032 28.4163 13.0075C28.876 13.0117 29.094 13.2623 29.1587 13.6842C29.2388 14.2055 29.0602 14.5591 28.6412 14.7111C28.3461 14.8181 28.0366 14.8184 27.7275 14.8183C22.1778 14.8172 16.6282 14.8169 11.0301 14.8166Z" fill="white"/>
<path d="M28.2262 18.0731C28.6914 18.9845 28.3923 19.5831 27.4372 19.5948C24.9749 19.6249 22.5112 19.5735 20.0497 19.6261C17.9086 19.6718 15.768 19.649 13.6273 19.6728C13.3532 19.6758 13.0747 19.6609 12.8052 19.6143C12.1715 19.5046 11.9295 19.1876 11.9757 18.5742C12.0161 18.038 12.3837 17.7205 13.0163 17.7194C14.963 17.716 16.9097 17.7268 18.8564 17.7284C21.6954 17.7309 24.5344 17.7323 27.3734 17.7279C27.6975 17.7274 27.9866 17.7787 28.2262 18.0731Z" fill="white"/>
<path d="M18.8199 24.3501C18.2212 24.3254 17.6673 24.4069 17.1204 24.2957C16.5568 24.1811 16.2486 23.8277 16.2831 23.3409C16.3142 22.9038 16.6974 22.5392 17.1924 22.4744C18.2108 22.3411 19.2333 22.45 20.2522 22.4509C21.8261 22.4524 23.3991 22.4508 24.972 22.3978C25.2332 22.3891 25.4877 22.4042 25.7448 22.4579C26.3747 22.5897 26.6093 22.8821 26.5909 23.5439C26.5791 23.9707 26.3307 24.187 25.7299 24.2889C25.004 24.412 24.2718 24.341 23.5429 24.3473C21.9849 24.3608 20.4267 24.3505 18.8199 24.3501Z" fill="white"/>
<path d="M1.90673 13.0074C2.98911 13.0098 4.02595 13.0007 5.06241 13.0162C5.66544 13.0252 5.97736 13.3047 6.03148 13.8252C6.07687 14.2618 5.76198 14.6201 5.21399 14.7463C5.08841 14.7752 4.95715 14.804 4.8301 14.7982C3.45561 14.7351 2.08203 14.669 0.704456 14.7103C0.296452 14.7225 0.033546 14.3802 0.00338297 13.9262C-0.0296218 13.4294 0.179516 13.0981 0.602591 13.0062C1.02041 12.9154 1.44146 12.9748 1.90673 13.0074Z" fill="white"/>
<path d="M12.7046 24.3015C11.5153 24.3854 10.3661 24.3529 9.21869 24.3281C8.83449 24.3198 8.39763 24.2962 8.23091 23.7924C8.09304 23.3758 8.18127 23.0353 8.46198 22.7189C8.65414 22.5023 8.90426 22.4706 9.16896 22.4707C10.3015 22.4712 11.4341 22.4695 12.5666 22.473C13.2441 22.475 13.6053 22.7825 13.6474 23.3812C13.6843 23.9067 13.4377 24.1565 12.7046 24.3015Z" fill="white"/>
<path d="M8.82594 18.6944C8.66803 19.4098 8.4866 19.5843 7.80675 19.5961C6.78585 19.6136 5.76422 19.6144 4.74333 19.5971C4.12453 19.5867 3.79991 19.2558 3.77271 18.6776C3.74812 18.1546 4.05977 17.7897 4.68198 17.7654C5.76614 17.723 6.85338 17.7214 7.93817 17.7487C8.48686 17.7626 8.70546 18.0352 8.82594 18.6944Z" fill="white"/>
</svg>
