<svg width="485" height="628" viewBox="0 0 485 628" fill="none" xmlns="http://www.w3.org/2000/svg">
<foreignObject x="-19.8" y="-19.8" width="524.6" height="667.6"><div xmlns="http://www.w3.org/1999/xhtml" style="backdrop-filter:blur(9.9px);clip-path:url(#bgblur_0_555_5639_clip_path);height:100%;width:100%"></div></foreignObject><g data-figma-bg-blur-radius="19.8">
<rect width="485" height="628" rx="30" fill="white" fill-opacity="0.15"/>
<rect x="0.5" y="0.5" width="484" height="627" rx="29.5" stroke="white" stroke-opacity="0.16"/>
<path d="M64.8878 209.08L67.4219 214.19C67.7675 214.901 68.689 215.584 69.4665 215.714L74.0596 216.484C76.9969 216.977 77.688 219.126 75.5714 221.246L72.0006 224.846C71.3959 225.456 71.0647 226.632 71.2519 227.474L72.2742 231.93C73.0805 235.458 71.2231 236.823 68.1274 234.979L63.8223 232.409C63.0448 231.945 61.7633 231.945 60.9714 232.409L56.6663 234.979C53.585 236.823 51.7133 235.444 52.5196 231.93L53.5419 227.474C53.729 226.632 53.3979 225.456 52.7931 224.846L49.2223 221.246C47.1202 219.126 47.7969 216.977 50.7342 216.484L55.3273 215.714C56.0904 215.584 57.0119 214.901 57.3574 214.19L59.8915 209.08C61.2738 206.307 63.5199 206.307 64.8878 209.08Z" fill="#FFCC00"/>
<path d="M102.688 209.08L105.222 214.19C105.568 214.901 106.489 215.584 107.267 215.714L111.86 216.484C114.797 216.977 115.488 219.126 113.371 221.246L109.801 224.846C109.196 225.456 108.865 226.632 109.052 227.474L110.074 231.93C110.881 235.458 109.023 236.823 105.927 234.979L101.622 232.409C100.845 231.945 99.5634 231.945 98.7715 232.409L94.4664 234.979C91.3851 236.823 89.5133 235.444 90.3196 231.93L91.3419 227.474C91.5291 226.632 91.1979 225.456 90.5932 224.846L87.0224 221.246C84.9202 219.126 85.5969 216.977 88.5342 216.484L93.1273 215.714C93.8904 215.584 94.8119 214.901 95.1575 214.19L97.6916 209.08C99.0738 206.307 101.32 206.307 102.688 209.08Z" fill="#FFCC00"/>
<path d="M140.488 209.08L143.022 214.19C143.368 214.901 144.289 215.584 145.067 215.714L149.66 216.484C152.597 216.977 153.288 219.126 151.172 221.246L147.601 224.846C146.996 225.456 146.665 226.632 146.852 227.474L147.874 231.93C148.681 235.458 146.823 236.823 143.728 234.979L139.422 232.409C138.645 231.945 137.363 231.945 136.572 232.409L132.266 234.979C129.185 236.823 127.313 235.444 128.12 231.93L129.142 227.474C129.329 226.632 128.998 225.456 128.393 224.846L124.822 221.246C122.72 219.126 123.397 216.977 126.334 216.484L130.927 215.714C131.69 215.584 132.612 214.901 132.958 214.19L135.492 209.08C136.874 206.307 139.12 206.307 140.488 209.08Z" fill="#FFCC00"/>
<path d="M178.288 209.08L180.822 214.19C181.167 214.901 182.089 215.584 182.866 215.714L187.459 216.484C190.397 216.977 191.088 219.126 188.971 221.246L185.401 224.846C184.796 225.456 184.465 226.632 184.652 227.474L185.674 231.93C186.48 235.458 184.623 236.823 181.527 234.979L177.222 232.409C176.445 231.945 175.163 231.945 174.371 232.409L170.066 234.979C166.985 236.823 165.113 235.444 165.919 231.93L166.942 227.474C167.129 226.632 166.798 225.456 166.193 224.846L162.622 221.246C160.52 219.126 161.197 216.977 164.134 216.484L168.727 215.714C169.49 215.584 170.412 214.901 170.757 214.19L173.291 209.08C174.674 206.307 176.92 206.307 178.288 209.08Z" fill="#FFCC00"/>
<path d="M216.088 209.08L218.622 214.19C218.967 214.901 219.889 215.584 220.666 215.714L225.26 216.484C228.197 216.977 228.888 219.126 226.771 221.246L223.201 224.846C222.596 225.456 222.265 226.632 222.452 227.474L223.474 231.93C224.28 235.458 222.423 236.823 219.327 234.979L215.022 232.409C214.245 231.945 212.963 231.945 212.171 232.409L207.866 234.979C204.785 236.823 202.913 235.444 203.72 231.93L204.742 227.474C204.929 226.632 204.598 225.456 203.993 224.846L200.422 221.246C198.32 219.126 198.997 216.977 201.934 216.484L206.527 215.714C207.29 215.584 208.212 214.901 208.557 214.19L211.092 209.08C212.474 206.307 214.72 206.307 216.088 209.08Z" fill="#FFCC00"/>
<path d="M50.28 84.0265V63.4465H57.09L60.03 73.9765C60.15 74.3565 60.27 74.8065 60.39 75.3265C60.51 75.8465 60.63 76.3665 60.75 76.8865C60.89 77.3865 61 77.8365 61.08 78.2365H61.32C61.36 77.8965 61.43 77.4965 61.53 77.0365C61.63 76.5565 61.74 76.0465 61.86 75.5065C61.98 74.9665 62.11 74.4465 62.25 73.9465L65.19 63.4465H71.88V84.0265H67.47V74.2765C67.47 73.3765 67.47 72.4765 67.47 71.5765C67.49 70.6565 67.51 69.8565 67.53 69.1765C67.57 68.4965 67.59 68.0565 67.59 67.8565H67.35C67.31 68.0765 67.21 68.4865 67.05 69.0865C66.91 69.6665 66.75 70.2865 66.57 70.9465C66.41 71.6065 66.26 72.1765 66.12 72.6565L62.91 84.0265H59.01L55.77 72.6865C55.65 72.2665 55.51 71.7765 55.35 71.2165C55.21 70.6365 55.07 70.0465 54.93 69.4465C54.81 68.8265 54.69 68.2965 54.57 67.8565H54.33C54.35 68.3965 54.37 69.0465 54.39 69.8065C54.41 70.5465 54.43 71.3165 54.45 72.1165C54.47 72.8965 54.48 73.6165 54.48 74.2765V84.0265H50.28ZM84.1521 84.3865C82.4121 84.3865 80.9521 84.0965 79.7721 83.5165C78.5921 82.9165 77.7021 82.0065 77.1021 80.7865C76.5021 79.5665 76.2021 78.0165 76.2021 76.1365C76.2021 74.2365 76.5021 72.6865 77.1021 71.4865C77.7021 70.2665 78.5821 69.3665 79.7421 68.7865C80.9221 68.1865 82.3621 67.8865 84.0621 67.8865C85.6621 67.8865 87.0121 68.1765 88.1121 68.7565C89.2121 69.3165 90.0421 70.1965 90.6021 71.3965C91.1621 72.5765 91.4421 74.1065 91.4421 75.9865V77.0665H80.4321C80.4721 77.9865 80.6121 78.7665 80.8521 79.4065C81.1121 80.0465 81.5021 80.5265 82.0221 80.8465C82.5621 81.1465 83.2721 81.2965 84.1521 81.2965C84.6321 81.2965 85.0621 81.2365 85.4421 81.1165C85.8421 80.9965 86.1821 80.8165 86.4621 80.5765C86.7421 80.3365 86.9621 80.0365 87.1221 79.6765C87.2821 79.3165 87.3621 78.9065 87.3621 78.4465H91.4421C91.4421 79.4465 91.2621 80.3165 90.9021 81.0565C90.5421 81.7965 90.0421 82.4165 89.4021 82.9165C88.7621 83.3965 87.9921 83.7665 87.0921 84.0265C86.2121 84.2665 85.2321 84.3865 84.1521 84.3865ZM80.4921 74.4265H87.1521C87.1521 73.8265 87.0721 73.3065 86.9121 72.8665C86.7721 72.4265 86.5721 72.0665 86.3121 71.7865C86.0521 71.5065 85.7321 71.3065 85.3521 71.1865C84.9921 71.0465 84.5821 70.9765 84.1221 70.9765C83.3621 70.9765 82.7221 71.1065 82.2021 71.3665C81.7021 71.6065 81.3121 71.9865 81.0321 72.5065C80.7721 73.0065 80.5921 73.6465 80.4921 74.4265ZM95.4016 84.0265V68.2465H98.8516L99.1816 70.7065H99.3916C99.5916 70.1865 99.8516 69.7165 100.172 69.2965C100.492 68.8565 100.892 68.5065 101.372 68.2465C101.852 67.9865 102.412 67.8565 103.052 67.8565C103.392 67.8565 103.702 67.8965 103.982 67.9765C104.262 68.0365 104.472 68.0965 104.612 68.1565V71.9365H103.322C102.702 71.9365 102.152 72.0265 101.672 72.2065C101.212 72.3665 100.822 72.6265 100.502 72.9865C100.182 73.3465 99.9416 73.7865 99.7816 74.3065C99.6416 74.8265 99.5716 75.4365 99.5716 76.1365V84.0265H95.4016ZM114.088 84.3865C112.988 84.3865 111.998 84.2665 111.118 84.0265C110.238 83.7865 109.488 83.4565 108.868 83.0365C108.248 82.5965 107.768 82.0765 107.428 81.4765C107.108 80.8765 106.948 80.1965 106.948 79.4365C106.948 79.3565 106.948 79.2765 106.948 79.1965C106.948 79.1165 106.958 79.0565 106.978 79.0165H110.998C110.998 79.0565 110.998 79.0965 110.998 79.1365C110.998 79.1765 110.998 79.2165 110.998 79.2565C111.018 79.7565 111.178 80.1665 111.478 80.4865C111.778 80.7865 112.168 81.0065 112.648 81.1465C113.148 81.2865 113.668 81.3565 114.208 81.3565C114.688 81.3565 115.148 81.3165 115.588 81.2365C116.048 81.1365 116.428 80.9665 116.728 80.7265C117.048 80.4865 117.208 80.1765 117.208 79.7965C117.208 79.3165 117.008 78.9465 116.608 78.6865C116.228 78.4265 115.718 78.2165 115.078 78.0565C114.458 77.8965 113.778 77.7165 113.038 77.5165C112.358 77.3565 111.678 77.1765 110.998 76.9765C110.318 76.7565 109.698 76.4765 109.138 76.1365C108.598 75.7965 108.158 75.3565 107.818 74.8165C107.478 74.2565 107.308 73.5565 107.308 72.7165C107.308 71.8965 107.488 71.1865 107.848 70.5865C108.208 69.9665 108.698 69.4565 109.318 69.0565C109.958 68.6565 110.698 68.3665 111.538 68.1865C112.398 67.9865 113.318 67.8865 114.298 67.8865C115.218 67.8865 116.078 67.9865 116.878 68.1865C117.678 68.3665 118.378 68.6465 118.978 69.0265C119.578 69.3865 120.048 69.8465 120.388 70.4065C120.728 70.9465 120.898 71.5565 120.898 72.2365C120.898 72.3765 120.898 72.5065 120.898 72.6265C120.898 72.7465 120.888 72.8265 120.868 72.8665H116.878V72.6265C116.878 72.2665 116.768 71.9665 116.548 71.7265C116.328 71.4665 116.008 71.2665 115.588 71.1265C115.188 70.9865 114.698 70.9165 114.118 70.9165C113.718 70.9165 113.348 70.9465 113.008 71.0065C112.688 71.0665 112.408 71.1565 112.168 71.2765C111.928 71.3965 111.738 71.5465 111.598 71.7265C111.478 71.8865 111.418 72.0865 111.418 72.3265C111.418 72.6665 111.558 72.9465 111.838 73.1665C112.138 73.3665 112.528 73.5365 113.008 73.6765C113.488 73.8165 114.018 73.9665 114.598 74.1265C115.318 74.3265 116.068 74.5265 116.848 74.7265C117.648 74.9065 118.388 75.1565 119.068 75.4765C119.748 75.7965 120.298 76.2565 120.718 76.8565C121.138 77.4365 121.348 78.2265 121.348 79.2265C121.348 80.1865 121.158 80.9965 120.778 81.6565C120.418 82.3165 119.908 82.8465 119.248 83.2465C118.588 83.6465 117.818 83.9365 116.938 84.1165C116.058 84.2965 115.108 84.3865 114.088 84.3865ZM129.438 84.3865C128.918 84.3865 128.358 84.3265 127.758 84.2065C127.178 84.0865 126.628 83.8765 126.108 83.5765C125.588 83.2565 125.158 82.8065 124.818 82.2265C124.498 81.6265 124.338 80.8665 124.338 79.9465C124.338 78.8465 124.578 77.9365 125.058 77.2165C125.538 76.4965 126.218 75.9365 127.098 75.5365C127.998 75.1165 129.068 74.8265 130.308 74.6665C131.548 74.5065 132.918 74.4265 134.418 74.4265V73.2565C134.418 72.7965 134.338 72.3965 134.178 72.0565C134.038 71.7165 133.778 71.4465 133.398 71.2465C133.038 71.0465 132.528 70.9465 131.868 70.9465C131.208 70.9465 130.668 71.0265 130.248 71.1865C129.848 71.3465 129.558 71.5565 129.378 71.8165C129.218 72.0565 129.138 72.3265 129.138 72.6265V72.9865H125.088C125.068 72.8865 125.058 72.7965 125.058 72.7165C125.058 72.6165 125.058 72.4965 125.058 72.3565C125.058 71.4365 125.338 70.6465 125.898 69.9865C126.458 69.3065 127.248 68.7865 128.268 68.4265C129.288 68.0665 130.478 67.8865 131.838 67.8865C133.298 67.8865 134.518 68.0765 135.498 68.4565C136.498 68.8365 137.258 69.3965 137.778 70.1365C138.318 70.8765 138.588 71.8065 138.588 72.9265V80.0965C138.588 80.4565 138.688 80.7265 138.888 80.9065C139.108 81.0665 139.348 81.1465 139.608 81.1465H140.598V83.8765C140.398 83.9765 140.088 84.0765 139.668 84.1765C139.248 84.2965 138.738 84.3565 138.138 84.3565C137.558 84.3565 137.038 84.2665 136.578 84.0865C136.138 83.9265 135.768 83.6965 135.468 83.3965C135.168 83.0765 134.958 82.6965 134.838 82.2565H134.628C134.288 82.6765 133.868 83.0465 133.368 83.3665C132.888 83.6865 132.318 83.9365 131.658 84.1165C131.018 84.2965 130.278 84.3865 129.438 84.3865ZM130.848 81.2365C131.408 81.2365 131.908 81.1565 132.348 80.9965C132.788 80.8165 133.158 80.5865 133.458 80.3065C133.758 80.0065 133.988 79.6465 134.148 79.2265C134.328 78.8065 134.418 78.3565 134.418 77.8765V77.0065C133.298 77.0065 132.298 77.0865 131.418 77.2465C130.538 77.3865 129.838 77.6365 129.318 77.9965C128.818 78.3565 128.568 78.8565 128.568 79.4965C128.568 79.8565 128.658 80.1665 128.838 80.4265C129.018 80.6865 129.278 80.8865 129.618 81.0265C129.958 81.1665 130.368 81.2365 130.848 81.2365ZM143.57 84.0265V62.3365H147.74V84.0265H143.57ZM159.617 84.0265V63.4465H170.327C171.807 63.4465 173.037 63.7265 174.017 64.2865C175.017 64.8265 175.767 65.5965 176.267 66.5965C176.787 67.5765 177.047 68.7465 177.047 70.1065C177.047 71.4665 176.777 72.6565 176.237 73.6765C175.717 74.6765 174.947 75.4565 173.927 76.0165C172.907 76.5765 171.657 76.8565 170.177 76.8565H164.087V84.0265H159.617ZM164.087 73.1965H169.577C170.517 73.1965 171.237 72.9265 171.737 72.3865C172.257 71.8465 172.517 71.0965 172.517 70.1365C172.517 69.4765 172.407 68.9265 172.187 68.4865C171.967 68.0465 171.637 67.7065 171.197 67.4665C170.777 67.2265 170.237 67.1065 169.577 67.1065H164.087V73.1965ZM180.577 84.0265V68.2465H184.027L184.357 70.7065H184.567C184.767 70.1865 185.027 69.7165 185.347 69.2965C185.667 68.8565 186.067 68.5065 186.547 68.2465C187.027 67.9865 187.587 67.8565 188.227 67.8565C188.567 67.8565 188.877 67.8965 189.157 67.9765C189.437 68.0365 189.647 68.0965 189.787 68.1565V71.9365H188.497C187.877 71.9365 187.327 72.0265 186.847 72.2065C186.387 72.3665 185.997 72.6265 185.677 72.9865C185.357 73.3465 185.117 73.7865 184.957 74.3065C184.817 74.8265 184.747 75.4365 184.747 76.1365V84.0265H180.577ZM199.841 84.3865C198.121 84.3865 196.661 84.0965 195.461 83.5165C194.261 82.9165 193.351 82.0065 192.731 80.7865C192.111 79.5465 191.801 77.9965 191.801 76.1365C191.801 74.2365 192.111 72.6865 192.731 71.4865C193.351 70.2665 194.261 69.3665 195.461 68.7865C196.661 68.1865 198.121 67.8865 199.841 67.8865C201.601 67.8865 203.071 68.1865 204.251 68.7865C205.451 69.3665 206.361 70.2665 206.981 71.4865C207.601 72.6865 207.911 74.2365 207.911 76.1365C207.911 77.9965 207.601 79.5465 206.981 80.7865C206.361 82.0065 205.451 82.9165 204.251 83.5165C203.071 84.0965 201.601 84.3865 199.841 84.3865ZM199.841 81.1465C200.761 81.1465 201.491 80.9765 202.031 80.6365C202.591 80.2965 203.001 79.7765 203.261 79.0765C203.521 78.3765 203.651 77.5165 203.651 76.4965V75.7765C203.651 74.7565 203.521 73.8965 203.261 73.1965C203.001 72.4965 202.591 71.9765 202.031 71.6365C201.491 71.2765 200.761 71.0965 199.841 71.0965C198.941 71.0965 198.211 71.2765 197.651 71.6365C197.111 71.9765 196.711 72.4965 196.451 73.1965C196.191 73.8965 196.061 74.7565 196.061 75.7765V76.4965C196.061 77.5165 196.191 78.3765 196.451 79.0765C196.711 79.7765 197.111 80.2965 197.651 80.6365C198.211 80.9765 198.941 81.1465 199.841 81.1465ZM218.668 84.0265V62.3365H222.838V69.9865H223.048C223.388 69.5665 223.788 69.2065 224.248 68.9065C224.728 68.5865 225.258 68.3365 225.838 68.1565C226.438 67.9765 227.088 67.8865 227.788 67.8865C228.828 67.8865 229.738 68.0765 230.518 68.4565C231.298 68.8365 231.898 69.4365 232.318 70.2565C232.758 71.0765 232.978 72.1465 232.978 73.4665V84.0265H228.808V74.1265C228.808 73.6265 228.748 73.2065 228.628 72.8665C228.508 72.5065 228.328 72.2165 228.088 71.9965C227.868 71.7565 227.588 71.5865 227.248 71.4865C226.908 71.3865 226.528 71.3365 226.108 71.3365C225.488 71.3365 224.928 71.4865 224.428 71.7865C223.928 72.0865 223.538 72.4965 223.258 73.0165C222.978 73.5365 222.838 74.1365 222.838 74.8165V84.0265H218.668ZM241.785 84.3865C241.265 84.3865 240.705 84.3265 240.105 84.2065C239.525 84.0865 238.975 83.8765 238.455 83.5765C237.935 83.2565 237.505 82.8065 237.165 82.2265C236.845 81.6265 236.685 80.8665 236.685 79.9465C236.685 78.8465 236.925 77.9365 237.405 77.2165C237.885 76.4965 238.565 75.9365 239.445 75.5365C240.345 75.1165 241.415 74.8265 242.655 74.6665C243.895 74.5065 245.265 74.4265 246.765 74.4265V73.2565C246.765 72.7965 246.685 72.3965 246.525 72.0565C246.385 71.7165 246.125 71.4465 245.745 71.2465C245.385 71.0465 244.875 70.9465 244.215 70.9465C243.555 70.9465 243.015 71.0265 242.595 71.1865C242.195 71.3465 241.905 71.5565 241.725 71.8165C241.565 72.0565 241.485 72.3265 241.485 72.6265V72.9865H237.435C237.415 72.8865 237.405 72.7965 237.405 72.7165C237.405 72.6165 237.405 72.4965 237.405 72.3565C237.405 71.4365 237.685 70.6465 238.245 69.9865C238.805 69.3065 239.595 68.7865 240.615 68.4265C241.635 68.0665 242.825 67.8865 244.185 67.8865C245.645 67.8865 246.865 68.0765 247.845 68.4565C248.845 68.8365 249.605 69.3965 250.125 70.1365C250.665 70.8765 250.935 71.8065 250.935 72.9265V80.0965C250.935 80.4565 251.035 80.7265 251.235 80.9065C251.455 81.0665 251.695 81.1465 251.955 81.1465H252.945V83.8765C252.745 83.9765 252.435 84.0765 252.015 84.1765C251.595 84.2965 251.085 84.3565 250.485 84.3565C249.905 84.3565 249.385 84.2665 248.925 84.0865C248.485 83.9265 248.115 83.6965 247.815 83.3965C247.515 83.0765 247.305 82.6965 247.185 82.2565H246.975C246.635 82.6765 246.215 83.0465 245.715 83.3665C245.235 83.6865 244.665 83.9365 244.005 84.1165C243.365 84.2965 242.625 84.3865 241.785 84.3865ZM243.195 81.2365C243.755 81.2365 244.255 81.1565 244.695 80.9965C245.135 80.8165 245.505 80.5865 245.805 80.3065C246.105 80.0065 246.335 79.6465 246.495 79.2265C246.675 78.8065 246.765 78.3565 246.765 77.8765V77.0065C245.645 77.0065 244.645 77.0865 243.765 77.2465C242.885 77.3865 242.185 77.6365 241.665 77.9965C241.165 78.3565 240.915 78.8565 240.915 79.4965C240.915 79.8565 241.005 80.1665 241.185 80.4265C241.365 80.6865 241.625 80.8865 241.965 81.0265C242.305 81.1665 242.715 81.2365 243.195 81.2365ZM262.307 84.3865C261.207 84.3865 260.217 84.2665 259.337 84.0265C258.457 83.7865 257.707 83.4565 257.087 83.0365C256.467 82.5965 255.987 82.0765 255.647 81.4765C255.327 80.8765 255.167 80.1965 255.167 79.4365C255.167 79.3565 255.167 79.2765 255.167 79.1965C255.167 79.1165 255.177 79.0565 255.197 79.0165H259.217C259.217 79.0565 259.217 79.0965 259.217 79.1365C259.217 79.1765 259.217 79.2165 259.217 79.2565C259.237 79.7565 259.397 80.1665 259.697 80.4865C259.997 80.7865 260.387 81.0065 260.867 81.1465C261.367 81.2865 261.887 81.3565 262.427 81.3565C262.907 81.3565 263.367 81.3165 263.807 81.2365C264.267 81.1365 264.647 80.9665 264.947 80.7265C265.267 80.4865 265.427 80.1765 265.427 79.7965C265.427 79.3165 265.227 78.9465 264.827 78.6865C264.447 78.4265 263.937 78.2165 263.297 78.0565C262.677 77.8965 261.997 77.7165 261.257 77.5165C260.577 77.3565 259.897 77.1765 259.217 76.9765C258.537 76.7565 257.917 76.4765 257.357 76.1365C256.817 75.7965 256.377 75.3565 256.037 74.8165C255.697 74.2565 255.527 73.5565 255.527 72.7165C255.527 71.8965 255.707 71.1865 256.067 70.5865C256.427 69.9665 256.917 69.4565 257.537 69.0565C258.177 68.6565 258.917 68.3665 259.757 68.1865C260.617 67.9865 261.537 67.8865 262.517 67.8865C263.437 67.8865 264.297 67.9865 265.097 68.1865C265.897 68.3665 266.597 68.6465 267.197 69.0265C267.797 69.3865 268.267 69.8465 268.607 70.4065C268.947 70.9465 269.117 71.5565 269.117 72.2365C269.117 72.3765 269.117 72.5065 269.117 72.6265C269.117 72.7465 269.107 72.8265 269.087 72.8665H265.097V72.6265C265.097 72.2665 264.987 71.9665 264.767 71.7265C264.547 71.4665 264.227 71.2665 263.807 71.1265C263.407 70.9865 262.917 70.9165 262.337 70.9165C261.937 70.9165 261.567 70.9465 261.227 71.0065C260.907 71.0665 260.627 71.1565 260.387 71.2765C260.147 71.3965 259.957 71.5465 259.817 71.7265C259.697 71.8865 259.637 72.0865 259.637 72.3265C259.637 72.6665 259.777 72.9465 260.057 73.1665C260.357 73.3665 260.747 73.5365 261.227 73.6765C261.707 73.8165 262.237 73.9665 262.817 74.1265C263.537 74.3265 264.287 74.5265 265.067 74.7265C265.867 74.9065 266.607 75.1565 267.287 75.4765C267.967 75.7965 268.517 76.2565 268.937 76.8565C269.357 77.4365 269.567 78.2265 269.567 79.2265C269.567 80.1865 269.377 80.9965 268.997 81.6565C268.637 82.3165 268.127 82.8465 267.467 83.2465C266.807 83.6465 266.037 83.9365 265.157 84.1165C264.277 84.2965 263.327 84.3865 262.307 84.3865ZM56.85 124.386C55.17 124.386 53.76 124.096 52.62 123.516C51.48 122.916 50.61 122.006 50.01 120.786C49.43 119.546 49.14 117.996 49.14 116.136C49.14 114.236 49.43 112.686 50.01 111.486C50.61 110.266 51.48 109.356 52.62 108.756C53.78 108.156 55.19 107.856 56.85 107.856C57.93 107.856 58.9 107.986 59.76 108.246C60.64 108.506 61.4 108.906 62.04 109.446C62.68 109.986 63.16 110.656 63.48 111.456C63.82 112.236 63.99 113.166 63.99 114.246H59.82C59.82 113.526 59.71 112.936 59.49 112.476C59.27 112.016 58.93 111.666 58.47 111.426C58.03 111.186 57.47 111.066 56.79 111.066C55.99 111.066 55.34 111.246 54.84 111.606C54.34 111.966 53.97 112.496 53.73 113.196C53.49 113.896 53.37 114.766 53.37 115.806V116.496C53.37 117.516 53.49 118.376 53.73 119.076C53.99 119.776 54.38 120.306 54.9 120.666C55.42 121.006 56.1 121.176 56.94 121.176C57.62 121.176 58.18 121.056 58.62 120.816C59.08 120.576 59.43 120.216 59.67 119.736C59.91 119.256 60.03 118.676 60.03 117.996H63.99C63.99 119.016 63.82 119.926 63.48 120.726C63.16 121.526 62.68 122.196 62.04 122.736C61.42 123.276 60.67 123.686 59.79 123.966C58.91 124.246 57.93 124.386 56.85 124.386ZM75.2773 124.386C73.5573 124.386 72.0973 124.096 70.8973 123.516C69.6973 122.916 68.7873 122.006 68.1673 120.786C67.5473 119.546 67.2373 117.996 67.2373 116.136C67.2373 114.236 67.5473 112.686 68.1673 111.486C68.7873 110.266 69.6973 109.366 70.8973 108.786C72.0973 108.186 73.5573 107.886 75.2773 107.886C77.0373 107.886 78.5073 108.186 79.6873 108.786C80.8873 109.366 81.7973 110.266 82.4173 111.486C83.0373 112.686 83.3473 114.236 83.3473 116.136C83.3473 117.996 83.0373 119.546 82.4173 120.786C81.7973 122.006 80.8873 122.916 79.6873 123.516C78.5073 124.096 77.0373 124.386 75.2773 124.386ZM75.2773 121.146C76.1973 121.146 76.9273 120.976 77.4673 120.636C78.0273 120.296 78.4373 119.776 78.6973 119.076C78.9573 118.376 79.0873 117.516 79.0873 116.496V115.776C79.0873 114.756 78.9573 113.896 78.6973 113.196C78.4373 112.496 78.0273 111.976 77.4673 111.636C76.9273 111.276 76.1973 111.096 75.2773 111.096C74.3773 111.096 73.6473 111.276 73.0873 111.636C72.5473 111.976 72.1473 112.496 71.8873 113.196C71.6273 113.896 71.4973 114.756 71.4973 115.776V116.496C71.4973 117.516 71.6273 118.376 71.8873 119.076C72.1473 119.776 72.5473 120.296 73.0873 120.636C73.6473 120.976 74.3773 121.146 75.2773 121.146ZM87.3157 124.026V108.246H90.7657L91.0957 110.406H91.3057C91.6657 109.886 92.0957 109.436 92.5957 109.056C93.1157 108.676 93.6957 108.386 94.3357 108.186C94.9757 107.986 95.6757 107.886 96.4357 107.886C97.4757 107.886 98.3857 108.076 99.1657 108.456C99.9457 108.836 100.546 109.436 100.966 110.256C101.406 111.076 101.626 112.146 101.626 113.466V124.026H97.4557V114.126C97.4557 113.626 97.3957 113.206 97.2757 112.866C97.1557 112.506 96.9757 112.216 96.7357 111.996C96.5157 111.756 96.2357 111.586 95.8957 111.486C95.5557 111.386 95.1757 111.336 94.7557 111.336C94.1357 111.336 93.5757 111.486 93.0757 111.786C92.5757 112.086 92.1857 112.496 91.9057 113.016C91.6257 113.536 91.4857 114.136 91.4857 114.816V124.026H87.3157ZM112.653 124.386C111.553 124.386 110.563 124.266 109.683 124.026C108.803 123.786 108.053 123.456 107.433 123.036C106.813 122.596 106.333 122.076 105.993 121.476C105.673 120.876 105.513 120.196 105.513 119.436C105.513 119.356 105.513 119.276 105.513 119.196C105.513 119.116 105.523 119.056 105.543 119.016H109.563C109.563 119.056 109.563 119.096 109.563 119.136C109.563 119.176 109.563 119.216 109.563 119.256C109.583 119.756 109.743 120.166 110.043 120.486C110.343 120.786 110.733 121.006 111.213 121.146C111.713 121.286 112.233 121.356 112.773 121.356C113.253 121.356 113.713 121.316 114.153 121.236C114.613 121.136 114.993 120.966 115.293 120.726C115.613 120.486 115.773 120.176 115.773 119.796C115.773 119.316 115.573 118.946 115.173 118.686C114.793 118.426 114.283 118.216 113.643 118.056C113.023 117.896 112.343 117.716 111.603 117.516C110.923 117.356 110.243 117.176 109.563 116.976C108.883 116.756 108.263 116.476 107.703 116.136C107.163 115.796 106.723 115.356 106.383 114.816C106.043 114.256 105.873 113.556 105.873 112.716C105.873 111.896 106.053 111.186 106.413 110.586C106.773 109.966 107.263 109.456 107.883 109.056C108.523 108.656 109.263 108.366 110.103 108.186C110.963 107.986 111.883 107.886 112.863 107.886C113.783 107.886 114.643 107.986 115.443 108.186C116.243 108.366 116.943 108.646 117.543 109.026C118.143 109.386 118.613 109.846 118.953 110.406C119.293 110.946 119.463 111.556 119.463 112.236C119.463 112.376 119.463 112.506 119.463 112.626C119.463 112.746 119.453 112.826 119.433 112.866H115.443V112.626C115.443 112.266 115.333 111.966 115.113 111.726C114.893 111.466 114.573 111.266 114.153 111.126C113.753 110.986 113.263 110.916 112.683 110.916C112.283 110.916 111.913 110.946 111.573 111.006C111.253 111.066 110.973 111.156 110.733 111.276C110.493 111.396 110.303 111.546 110.163 111.726C110.043 111.886 109.983 112.086 109.983 112.326C109.983 112.666 110.123 112.946 110.403 113.166C110.703 113.366 111.093 113.536 111.573 113.676C112.053 113.816 112.583 113.966 113.163 114.126C113.883 114.326 114.633 114.526 115.413 114.726C116.213 114.906 116.953 115.156 117.633 115.476C118.313 115.796 118.863 116.256 119.283 116.856C119.703 117.436 119.913 118.226 119.913 119.226C119.913 120.186 119.723 120.996 119.343 121.656C118.983 122.316 118.473 122.846 117.813 123.246C117.153 123.646 116.383 123.936 115.503 124.116C114.623 124.296 113.673 124.386 112.653 124.386ZM123.832 105.936V102.336H128.002V105.936H123.832ZM123.832 124.026V108.246H128.002V124.026H123.832ZM139.121 124.386C138.021 124.386 137.031 124.266 136.151 124.026C135.271 123.786 134.521 123.456 133.901 123.036C133.281 122.596 132.801 122.076 132.461 121.476C132.141 120.876 131.981 120.196 131.981 119.436C131.981 119.356 131.981 119.276 131.981 119.196C131.981 119.116 131.991 119.056 132.011 119.016H136.031C136.031 119.056 136.031 119.096 136.031 119.136C136.031 119.176 136.031 119.216 136.031 119.256C136.051 119.756 136.211 120.166 136.511 120.486C136.811 120.786 137.201 121.006 137.681 121.146C138.181 121.286 138.701 121.356 139.241 121.356C139.721 121.356 140.181 121.316 140.621 121.236C141.081 121.136 141.461 120.966 141.761 120.726C142.081 120.486 142.241 120.176 142.241 119.796C142.241 119.316 142.041 118.946 141.641 118.686C141.261 118.426 140.751 118.216 140.111 118.056C139.491 117.896 138.811 117.716 138.071 117.516C137.391 117.356 136.711 117.176 136.031 116.976C135.351 116.756 134.731 116.476 134.171 116.136C133.631 115.796 133.191 115.356 132.851 114.816C132.511 114.256 132.341 113.556 132.341 112.716C132.341 111.896 132.521 111.186 132.881 110.586C133.241 109.966 133.731 109.456 134.351 109.056C134.991 108.656 135.731 108.366 136.571 108.186C137.431 107.986 138.351 107.886 139.331 107.886C140.251 107.886 141.111 107.986 141.911 108.186C142.711 108.366 143.411 108.646 144.011 109.026C144.611 109.386 145.081 109.846 145.421 110.406C145.761 110.946 145.931 111.556 145.931 112.236C145.931 112.376 145.931 112.506 145.931 112.626C145.931 112.746 145.921 112.826 145.901 112.866H141.911V112.626C141.911 112.266 141.801 111.966 141.581 111.726C141.361 111.466 141.041 111.266 140.621 111.126C140.221 110.986 139.731 110.916 139.151 110.916C138.751 110.916 138.381 110.946 138.041 111.006C137.721 111.066 137.441 111.156 137.201 111.276C136.961 111.396 136.771 111.546 136.631 111.726C136.511 111.886 136.451 112.086 136.451 112.326C136.451 112.666 136.591 112.946 136.871 113.166C137.171 113.366 137.561 113.536 138.041 113.676C138.521 113.816 139.051 113.966 139.631 114.126C140.351 114.326 141.101 114.526 141.881 114.726C142.681 114.906 143.421 115.156 144.101 115.476C144.781 115.796 145.331 116.256 145.751 116.856C146.171 117.436 146.381 118.226 146.381 119.226C146.381 120.186 146.191 120.996 145.811 121.656C145.451 122.316 144.941 122.846 144.281 123.246C143.621 123.646 142.851 123.936 141.971 124.116C141.091 124.296 140.141 124.386 139.121 124.386ZM155.01 124.386C154.01 124.386 153.2 124.206 152.58 123.846C151.96 123.486 151.51 123.006 151.23 122.406C150.95 121.786 150.81 121.106 150.81 120.366V111.456H148.86V108.246H150.96L151.74 103.746H154.98V108.246H157.86V111.456H154.98V119.676C154.98 120.156 155.09 120.526 155.31 120.786C155.53 121.026 155.89 121.146 156.39 121.146H157.86V123.906C157.62 123.986 157.34 124.056 157.02 124.116C156.7 124.196 156.36 124.256 156 124.296C155.64 124.356 155.31 124.386 155.01 124.386ZM168.624 124.386C166.884 124.386 165.424 124.096 164.244 123.516C163.064 122.916 162.174 122.006 161.574 120.786C160.974 119.566 160.674 118.016 160.674 116.136C160.674 114.236 160.974 112.686 161.574 111.486C162.174 110.266 163.054 109.366 164.214 108.786C165.394 108.186 166.834 107.886 168.534 107.886C170.134 107.886 171.484 108.176 172.584 108.756C173.684 109.316 174.514 110.196 175.074 111.396C175.634 112.576 175.914 114.106 175.914 115.986V117.066H164.904C164.944 117.986 165.084 118.766 165.324 119.406C165.584 120.046 165.974 120.526 166.494 120.846C167.034 121.146 167.744 121.296 168.624 121.296C169.104 121.296 169.534 121.236 169.914 121.116C170.314 120.996 170.654 120.816 170.934 120.576C171.214 120.336 171.434 120.036 171.594 119.676C171.754 119.316 171.834 118.906 171.834 118.446H175.914C175.914 119.446 175.734 120.316 175.374 121.056C175.014 121.796 174.514 122.416 173.874 122.916C173.234 123.396 172.464 123.766 171.564 124.026C170.684 124.266 169.704 124.386 168.624 124.386ZM164.964 114.426H171.624C171.624 113.826 171.544 113.306 171.384 112.866C171.244 112.426 171.044 112.066 170.784 111.786C170.524 111.506 170.204 111.306 169.824 111.186C169.464 111.046 169.054 110.976 168.594 110.976C167.834 110.976 167.194 111.106 166.674 111.366C166.174 111.606 165.784 111.986 165.504 112.506C165.244 113.006 165.064 113.646 164.964 114.426ZM179.874 124.026V108.246H183.324L183.654 110.406H183.864C184.224 109.886 184.654 109.436 185.154 109.056C185.674 108.676 186.254 108.386 186.894 108.186C187.534 107.986 188.234 107.886 188.994 107.886C190.034 107.886 190.944 108.076 191.724 108.456C192.504 108.836 193.104 109.436 193.524 110.256C193.964 111.076 194.184 112.146 194.184 113.466V124.026H190.014V114.126C190.014 113.626 189.954 113.206 189.834 112.866C189.714 112.506 189.534 112.216 189.294 111.996C189.074 111.756 188.794 111.586 188.454 111.486C188.114 111.386 187.734 111.336 187.314 111.336C186.694 111.336 186.134 111.486 185.634 111.786C185.134 112.086 184.744 112.496 184.464 113.016C184.184 113.536 184.044 114.136 184.044 114.816V124.026H179.874ZM203.531 124.386C202.531 124.386 201.721 124.206 201.101 123.846C200.481 123.486 200.031 123.006 199.751 122.406C199.471 121.786 199.331 121.106 199.331 120.366V111.456H197.381V108.246H199.481L200.261 103.746H203.501V108.246H206.381V111.456H203.501V119.676C203.501 120.156 203.611 120.526 203.831 120.786C204.051 121.026 204.411 121.146 204.911 121.146H206.381V123.906C206.141 123.986 205.861 124.056 205.541 124.116C205.221 124.196 204.881 124.256 204.521 124.296C204.161 124.356 203.831 124.386 203.531 124.386ZM209.975 124.026V102.336H214.145V124.026H209.975ZM221.153 129.666C220.413 129.666 219.793 129.606 219.293 129.486C218.813 129.386 218.503 129.316 218.363 129.276V126.456H220.193C220.693 126.456 221.143 126.336 221.543 126.096C221.943 125.876 222.293 125.576 222.593 125.196C222.893 124.836 223.113 124.446 223.253 124.026L217.073 108.246H221.483L224.183 115.536C224.303 115.876 224.433 116.306 224.573 116.826C224.733 117.326 224.893 117.856 225.053 118.416C225.213 118.956 225.343 119.436 225.443 119.856H225.593C225.673 119.576 225.763 119.246 225.863 118.866C225.963 118.486 226.063 118.096 226.163 117.696C226.283 117.296 226.393 116.916 226.493 116.556C226.613 116.176 226.713 115.846 226.793 115.566L229.043 108.246H233.243L227.873 123.276C227.573 124.156 227.223 124.976 226.823 125.736C226.443 126.516 225.993 127.196 225.473 127.776C224.953 128.376 224.333 128.836 223.613 129.156C222.913 129.496 222.093 129.666 221.153 129.666ZM248.548 124.386C247.248 124.386 246.118 124.096 245.158 123.516C244.218 122.916 243.488 122.006 242.968 120.786C242.448 119.566 242.188 118.006 242.188 116.106C242.188 114.206 242.448 112.656 242.968 111.456C243.508 110.236 244.238 109.336 245.158 108.756C246.098 108.176 247.178 107.886 248.398 107.886C249.078 107.886 249.708 107.966 250.288 108.126C250.888 108.266 251.408 108.496 251.848 108.816C252.308 109.136 252.698 109.526 253.018 109.986H253.198V102.336H257.368V124.026H253.948L253.618 121.896H253.408C252.888 122.736 252.208 123.366 251.368 123.786C250.528 124.186 249.588 124.386 248.548 124.386ZM249.868 120.966C250.648 120.966 251.278 120.786 251.758 120.426C252.258 120.066 252.628 119.546 252.868 118.866C253.108 118.186 253.228 117.376 253.228 116.436V115.896C253.228 115.196 253.158 114.556 253.018 113.976C252.898 113.396 252.698 112.916 252.418 112.536C252.138 112.136 251.788 111.836 251.368 111.636C250.948 111.416 250.448 111.306 249.868 111.306C249.028 111.306 248.358 111.476 247.858 111.816C247.358 112.136 246.998 112.636 246.778 113.316C246.558 113.976 246.448 114.806 246.448 115.806V116.496C246.448 117.496 246.558 118.326 246.778 118.986C246.998 119.646 247.358 120.146 247.858 120.486C248.358 120.806 249.028 120.966 249.868 120.966ZM269.29 124.386C267.55 124.386 266.09 124.096 264.91 123.516C263.73 122.916 262.84 122.006 262.24 120.786C261.64 119.566 261.34 118.016 261.34 116.136C261.34 114.236 261.64 112.686 262.24 111.486C262.84 110.266 263.72 109.366 264.88 108.786C266.06 108.186 267.5 107.886 269.2 107.886C270.8 107.886 272.15 108.176 273.25 108.756C274.35 109.316 275.18 110.196 275.74 111.396C276.3 112.576 276.58 114.106 276.58 115.986V117.066H265.57C265.61 117.986 265.75 118.766 265.99 119.406C266.25 120.046 266.64 120.526 267.16 120.846C267.7 121.146 268.41 121.296 269.29 121.296C269.77 121.296 270.2 121.236 270.58 121.116C270.98 120.996 271.32 120.816 271.6 120.576C271.88 120.336 272.1 120.036 272.26 119.676C272.42 119.316 272.5 118.906 272.5 118.446H276.58C276.58 119.446 276.4 120.316 276.04 121.056C275.68 121.796 275.18 122.416 274.54 122.916C273.9 123.396 273.13 123.766 272.23 124.026C271.35 124.266 270.37 124.386 269.29 124.386ZM265.63 114.426H272.29C272.29 113.826 272.21 113.306 272.05 112.866C271.91 112.426 271.71 112.066 271.45 111.786C271.19 111.506 270.87 111.306 270.49 111.186C270.13 111.046 269.72 110.976 269.26 110.976C268.5 110.976 267.86 111.106 267.34 111.366C266.84 111.606 266.45 111.986 266.17 112.506C265.91 113.006 265.73 113.646 265.63 114.426ZM280.539 124.026V102.336H284.709V124.026H280.539ZM289.437 105.936V102.336H293.607V105.936H289.437ZM289.437 124.026V108.246H293.607V124.026H289.437ZM302.415 124.026L296.535 108.246H300.945L303.255 114.906C303.375 115.246 303.515 115.696 303.675 116.256C303.855 116.816 304.035 117.406 304.215 118.026C304.395 118.646 304.545 119.206 304.665 119.706H304.815C304.955 119.246 305.105 118.716 305.265 118.116C305.425 117.496 305.585 116.906 305.745 116.346C305.925 115.766 306.075 115.286 306.195 114.906L308.505 108.246H312.705L306.795 124.026H302.415ZM322.811 124.386C321.071 124.386 319.611 124.096 318.431 123.516C317.251 122.916 316.361 122.006 315.761 120.786C315.161 119.566 314.861 118.016 314.861 116.136C314.861 114.236 315.161 112.686 315.761 111.486C316.361 110.266 317.241 109.366 318.401 108.786C319.581 108.186 321.021 107.886 322.721 107.886C324.321 107.886 325.671 108.176 326.771 108.756C327.871 109.316 328.701 110.196 329.261 111.396C329.821 112.576 330.101 114.106 330.101 115.986V117.066H319.091C319.131 117.986 319.271 118.766 319.511 119.406C319.771 120.046 320.161 120.526 320.681 120.846C321.221 121.146 321.931 121.296 322.811 121.296C323.291 121.296 323.721 121.236 324.101 121.116C324.501 120.996 324.841 120.816 325.121 120.576C325.401 120.336 325.621 120.036 325.781 119.676C325.941 119.316 326.021 118.906 326.021 118.446H330.101C330.101 119.446 329.921 120.316 329.561 121.056C329.201 121.796 328.701 122.416 328.061 122.916C327.421 123.396 326.651 123.766 325.751 124.026C324.871 124.266 323.891 124.386 322.811 124.386ZM319.151 114.426H325.811C325.811 113.826 325.731 113.306 325.571 112.866C325.431 112.426 325.231 112.066 324.971 111.786C324.711 111.506 324.391 111.306 324.011 111.186C323.651 111.046 323.241 110.976 322.781 110.976C322.021 110.976 321.381 111.106 320.861 111.366C320.361 111.606 319.971 111.986 319.691 112.506C319.431 113.006 319.251 113.646 319.151 114.426ZM334.061 124.026V108.246H337.511L337.841 110.706H338.051C338.251 110.186 338.511 109.716 338.831 109.296C339.151 108.856 339.551 108.506 340.031 108.246C340.511 107.986 341.071 107.856 341.711 107.856C342.051 107.856 342.361 107.896 342.641 107.976C342.921 108.036 343.131 108.096 343.271 108.156V111.936H341.981C341.361 111.936 340.811 112.026 340.331 112.206C339.871 112.366 339.481 112.626 339.161 112.986C338.841 113.346 338.601 113.786 338.441 114.306C338.301 114.826 338.231 115.436 338.231 116.136V124.026H334.061ZM353.235 124.386C351.495 124.386 350.035 124.096 348.855 123.516C347.675 122.916 346.785 122.006 346.185 120.786C345.585 119.566 345.285 118.016 345.285 116.136C345.285 114.236 345.585 112.686 346.185 111.486C346.785 110.266 347.665 109.366 348.825 108.786C350.005 108.186 351.445 107.886 353.145 107.886C354.745 107.886 356.095 108.176 357.195 108.756C358.295 109.316 359.125 110.196 359.685 111.396C360.245 112.576 360.525 114.106 360.525 115.986V117.066H349.515C349.555 117.986 349.695 118.766 349.935 119.406C350.195 120.046 350.585 120.526 351.105 120.846C351.645 121.146 352.355 121.296 353.235 121.296C353.715 121.296 354.145 121.236 354.525 121.116C354.925 120.996 355.265 120.816 355.545 120.576C355.825 120.336 356.045 120.036 356.205 119.676C356.365 119.316 356.445 118.906 356.445 118.446H360.525C360.525 119.446 360.345 120.316 359.985 121.056C359.625 121.796 359.125 122.416 358.485 122.916C357.845 123.396 357.075 123.766 356.175 124.026C355.295 124.266 354.315 124.386 353.235 124.386ZM349.575 114.426H356.235C356.235 113.826 356.155 113.306 355.995 112.866C355.855 112.426 355.655 112.066 355.395 111.786C355.135 111.506 354.815 111.306 354.435 111.186C354.075 111.046 353.665 110.976 353.205 110.976C352.445 110.976 351.805 111.106 351.285 111.366C350.785 111.606 350.395 111.986 350.115 112.506C349.855 113.006 349.675 113.646 349.575 114.426ZM370.064 124.386C368.764 124.386 367.634 124.096 366.674 123.516C365.734 122.916 365.004 122.006 364.484 120.786C363.964 119.566 363.704 118.006 363.704 116.106C363.704 114.206 363.964 112.656 364.484 111.456C365.024 110.236 365.754 109.336 366.674 108.756C367.614 108.176 368.694 107.886 369.914 107.886C370.594 107.886 371.224 107.966 371.804 108.126C372.404 108.266 372.924 108.496 373.364 108.816C373.824 109.136 374.214 109.526 374.534 109.986H374.714V102.336H378.884V124.026H375.464L375.134 121.896H374.924C374.404 122.736 373.724 123.366 372.884 123.786C372.044 124.186 371.104 124.386 370.064 124.386ZM371.384 120.966C372.164 120.966 372.794 120.786 373.274 120.426C373.774 120.066 374.144 119.546 374.384 118.866C374.624 118.186 374.744 117.376 374.744 116.436V115.896C374.744 115.196 374.674 114.556 374.534 113.976C374.414 113.396 374.214 112.916 373.934 112.536C373.654 112.136 373.304 111.836 372.884 111.636C372.464 111.416 371.964 111.306 371.384 111.306C370.544 111.306 369.874 111.476 369.374 111.816C368.874 112.136 368.514 112.636 368.294 113.316C368.074 113.976 367.964 114.806 367.964 115.806V116.496C367.964 117.496 368.074 118.326 368.294 118.986C368.514 119.646 368.874 120.146 369.374 120.486C369.874 120.806 370.544 120.966 371.384 120.966ZM57.18 164.386C55.46 164.386 54 164.096 52.8 163.516C51.6 162.916 50.69 162.006 50.07 160.786C49.45 159.546 49.14 157.996 49.14 156.136C49.14 154.236 49.45 152.686 50.07 151.486C50.69 150.266 51.6 149.366 52.8 148.786C54 148.186 55.46 147.886 57.18 147.886C58.94 147.886 60.41 148.186 61.59 148.786C62.79 149.366 63.7 150.266 64.32 151.486C64.94 152.686 65.25 154.236 65.25 156.136C65.25 157.996 64.94 159.546 64.32 160.786C63.7 162.006 62.79 162.916 61.59 163.516C60.41 164.096 58.94 164.386 57.18 164.386ZM57.18 161.146C58.1 161.146 58.83 160.976 59.37 160.636C59.93 160.296 60.34 159.776 60.6 159.076C60.86 158.376 60.99 157.516 60.99 156.496V155.776C60.99 154.756 60.86 153.896 60.6 153.196C60.34 152.496 59.93 151.976 59.37 151.636C58.83 151.276 58.1 151.096 57.18 151.096C56.28 151.096 55.55 151.276 54.99 151.636C54.45 151.976 54.05 152.496 53.79 153.196C53.53 153.896 53.4 154.756 53.4 155.776V156.496C53.4 157.516 53.53 158.376 53.79 159.076C54.05 159.776 54.45 160.296 54.99 160.636C55.55 160.976 56.28 161.146 57.18 161.146ZM69.2184 164.026V148.246H72.6684L72.9984 150.406H73.2084C73.5684 149.886 73.9984 149.436 74.4984 149.056C75.0184 148.676 75.5984 148.386 76.2384 148.186C76.8784 147.986 77.5784 147.886 78.3384 147.886C79.3784 147.886 80.2884 148.076 81.0684 148.456C81.8484 148.836 82.4484 149.436 82.8684 150.256C83.3084 151.076 83.5284 152.146 83.5284 153.466V164.026H79.3584V154.126C79.3584 153.626 79.2984 153.206 79.1784 152.866C79.0584 152.506 78.8784 152.216 78.6384 151.996C78.4184 151.756 78.1384 151.586 77.7984 151.486C77.4584 151.386 77.0784 151.336 76.6584 151.336C76.0384 151.336 75.4784 151.486 74.9784 151.786C74.4784 152.086 74.0884 152.496 73.8084 153.016C73.5284 153.536 73.3884 154.136 73.3884 154.816V164.026H69.2184ZM99.664 164.386C98.664 164.386 97.854 164.206 97.234 163.846C96.614 163.486 96.164 163.006 95.884 162.406C95.604 161.786 95.464 161.106 95.464 160.366V151.456H93.514V148.246H95.614L96.394 143.746H99.634V148.246H102.514V151.456H99.634V159.676C99.634 160.156 99.744 160.526 99.964 160.786C100.184 161.026 100.544 161.146 101.044 161.146H102.514V163.906C102.274 163.986 101.994 164.056 101.674 164.116C101.354 164.196 101.014 164.256 100.654 164.296C100.294 164.356 99.964 164.386 99.664 164.386ZM106.108 145.936V142.336H110.278V145.936H106.108ZM106.108 164.026V148.246H110.278V164.026H106.108ZM115.006 164.026V148.246H118.456L118.786 150.406H118.996C119.336 149.886 119.736 149.436 120.196 149.056C120.676 148.676 121.206 148.386 121.786 148.186C122.386 147.986 123.026 147.886 123.706 147.886C124.706 147.886 125.566 148.086 126.286 148.486C127.026 148.886 127.596 149.526 127.996 150.406H128.206C128.546 149.886 128.956 149.436 129.436 149.056C129.916 148.676 130.466 148.386 131.086 148.186C131.706 147.986 132.366 147.886 133.066 147.886C134.066 147.886 134.926 148.066 135.646 148.426C136.386 148.786 136.966 149.376 137.386 150.196C137.806 150.996 138.016 152.036 138.016 153.316V164.026H133.846V154.066C133.846 153.566 133.786 153.146 133.666 152.806C133.566 152.446 133.416 152.166 133.216 151.966C133.016 151.746 132.766 151.586 132.466 151.486C132.166 151.386 131.846 151.336 131.506 151.336C130.946 151.336 130.446 151.486 130.006 151.786C129.566 152.086 129.216 152.496 128.956 153.016C128.716 153.536 128.596 154.136 128.596 154.816V164.026H124.426V154.066C124.426 153.566 124.366 153.146 124.246 152.806C124.146 152.446 123.996 152.166 123.796 151.966C123.596 151.746 123.346 151.586 123.046 151.486C122.766 151.386 122.446 151.336 122.086 151.336C121.546 151.336 121.046 151.486 120.586 151.786C120.146 152.086 119.796 152.496 119.536 153.016C119.296 153.536 119.176 154.136 119.176 154.816V164.026H115.006ZM149.795 164.386C148.055 164.386 146.595 164.096 145.415 163.516C144.235 162.916 143.345 162.006 142.745 160.786C142.145 159.566 141.845 158.016 141.845 156.136C141.845 154.236 142.145 152.686 142.745 151.486C143.345 150.266 144.225 149.366 145.385 148.786C146.565 148.186 148.005 147.886 149.705 147.886C151.305 147.886 152.655 148.176 153.755 148.756C154.855 149.316 155.685 150.196 156.245 151.396C156.805 152.576 157.085 154.106 157.085 155.986V157.066H146.075C146.115 157.986 146.255 158.766 146.495 159.406C146.755 160.046 147.145 160.526 147.665 160.846C148.205 161.146 148.915 161.296 149.795 161.296C150.275 161.296 150.705 161.236 151.085 161.116C151.485 160.996 151.825 160.816 152.105 160.576C152.385 160.336 152.605 160.036 152.765 159.676C152.925 159.316 153.005 158.906 153.005 158.446H157.085C157.085 159.446 156.905 160.316 156.545 161.056C156.185 161.796 155.685 162.416 155.045 162.916C154.405 163.396 153.635 163.766 152.735 164.026C151.855 164.266 150.875 164.386 149.795 164.386ZM146.135 154.426H152.795C152.795 153.826 152.715 153.306 152.555 152.866C152.415 152.426 152.215 152.066 151.955 151.786C151.695 151.506 151.375 151.306 150.995 151.186C150.635 151.046 150.225 150.976 149.765 150.976C149.005 150.976 148.365 151.106 147.845 151.366C147.345 151.606 146.955 151.986 146.675 152.506C146.415 153.006 146.235 153.646 146.135 154.426Z" fill="#F1F1F1"/>
<line x1="50.5" y1="253" x2="50.5" y2="396" stroke="#85BBFF" stroke-dasharray="4 4"/>
<line x1="87" y1="513.5" x2="230" y2="513.5" stroke="#85BBFF" stroke-dasharray="4 4"/>
<g opacity="0.5">
<path d="M37.4839 57.3833H29.6672C29.8005 49.5999 31.3339 48.3166 36.1172 45.4832C36.6672 45.1499 36.8505 44.4499 36.5172 43.8832C36.1838 43.3332 35.4838 43.1499 34.9171 43.4832C29.2838 46.8166 27.3171 48.8499 27.3171 58.55V67.5333C27.3171 70.3833 29.6339 72.6833 32.4672 72.6833H37.4672C40.4005 72.6833 42.6171 70.4666 42.6171 67.5333V62.5333C42.6338 59.6 40.4172 57.3833 37.4839 57.3833Z" fill="white"/>
<path opacity="0.4" d="M55.5175 57.3833H47.7008C47.8342 49.5999 49.3677 48.3166 54.151 45.4832C54.701 45.1499 54.8843 44.4499 54.551 43.8832C54.2177 43.3332 53.5175 43.1499 52.9508 43.4832C47.3175 46.8166 45.3508 48.8499 45.3508 58.55V67.5333C45.3508 70.3833 47.6677 72.6833 50.501 72.6833H55.501C58.4343 72.6833 60.6508 70.4666 60.6508 67.5333V62.5333C60.6675 59.6 58.4508 57.3833 55.5175 57.3833Z" fill="white"/>
</g>
<g opacity="0.5">
<path d="M171.516 166.617H179.333C179.199 174.4 177.666 175.683 172.883 178.517C172.333 178.85 172.149 179.55 172.483 180.117C172.816 180.667 173.516 180.85 174.083 180.517C179.716 177.183 181.683 175.15 181.683 165.45V156.467C181.683 153.617 179.366 151.317 176.533 151.317H171.533C168.599 151.317 166.383 153.533 166.383 156.467V161.467C166.366 164.4 168.583 166.617 171.516 166.617Z" fill="white"/>
<path opacity="0.4" d="M153.483 166.617H161.299C161.166 174.4 159.632 175.683 154.849 178.517C154.299 178.85 154.116 179.55 154.449 180.117C154.782 180.667 155.483 180.85 156.049 180.517C161.683 177.183 163.649 175.15 163.649 165.45V156.467C163.649 153.617 161.332 151.317 158.499 151.317H153.499C150.566 151.317 148.349 153.533 148.349 156.467V161.467C148.333 164.4 150.549 166.617 153.483 166.617Z" fill="white"/>
</g>
</g>
<defs>
<clipPath id="bgblur_0_555_5639_clip_path" transform="translate(19.8 19.8)"><rect width="485" height="628" rx="30"/>
</clipPath></defs>
</svg>
