<svg width="22" height="22" viewBox="0 0 22 22" fill="none" xmlns="http://www.w3.org/2000/svg">
<path d="M13.75 1.83301V10.9997C13.75 12.008 12.925 12.833 11.9167 12.833H1.83337V5.49967C1.83337 3.47384 3.47421 1.83301 5.50004 1.83301H13.75Z" stroke="#C2DDFF" stroke-width="1.5" stroke-linecap="round" stroke-linejoin="round"/>
<path d="M20.1667 12.833V15.583C20.1667 17.1047 18.9384 18.333 17.4167 18.333H16.5C16.5 17.3247 15.675 16.4997 14.6667 16.4997C13.6584 16.4997 12.8334 17.3247 12.8334 18.333H9.16671C9.16671 17.3247 8.34171 16.4997 7.33337 16.4997C6.32504 16.4997 5.50004 17.3247 5.50004 18.333H4.58337C3.06171 18.333 1.83337 17.1047 1.83337 15.583V12.833H11.9167C12.925 12.833 13.75 12.008 13.75 10.9997V4.58301H15.4367C16.0967 4.58301 16.7017 4.94052 17.0317 5.50885L18.5992 8.24967H17.4167C16.9125 8.24967 16.5 8.66217 16.5 9.16634V11.9163C16.5 12.4205 16.9125 12.833 17.4167 12.833H20.1667Z" stroke="#C2DDFF" stroke-width="1.5" stroke-linecap="round" stroke-linejoin="round"/>
<path d="M7.33333 20.1667C8.34586 20.1667 9.16667 19.3459 9.16667 18.3333C9.16667 17.3208 8.34586 16.5 7.33333 16.5C6.32081 16.5 5.5 17.3208 5.5 18.3333C5.5 19.3459 6.32081 20.1667 7.33333 20.1667Z" stroke="#C2DDFF" stroke-width="1.5" stroke-linecap="round" stroke-linejoin="round"/>
<path d="M14.6667 20.1667C15.6792 20.1667 16.5 19.3459 16.5 18.3333C16.5 17.3208 15.6792 16.5 14.6667 16.5C13.6542 16.5 12.8334 17.3208 12.8334 18.3333C12.8334 19.3459 13.6542 20.1667 14.6667 20.1667Z" stroke="#C2DDFF" stroke-width="1.5" stroke-linecap="round" stroke-linejoin="round"/>
<path d="M20.1667 11V12.8333H17.4167C16.9125 12.8333 16.5 12.4208 16.5 11.9167V9.16667C16.5 8.6625 16.9125 8.25 17.4167 8.25H18.5992L20.1667 11Z" stroke="#C2DDFF" stroke-width="1.5" stroke-linecap="round" stroke-linejoin="round"/>
</svg>
