<svg width="22" height="22" viewBox="0 0 22 22" fill="none" xmlns="http://www.w3.org/2000/svg">
<path d="M10.6242 10.9996C13.1554 10.9996 15.2074 8.94762 15.2074 6.41632C15.2074 3.88503 13.1554 1.83301 10.6242 1.83301C8.09289 1.83301 6.04089 3.88503 6.04089 6.41632C6.04089 8.94762 8.09289 10.9996 10.6242 10.9996Z" stroke="#C2DDFF" stroke-width="1.5" stroke-linecap="round" stroke-linejoin="round"/>
<path d="M2.75 20.1666C2.75 16.6192 6.27911 13.75 10.6241 13.75C11.504 13.75 12.3565 13.8692 13.154 14.0892" stroke="#C2DDFF" stroke-width="1.5" stroke-linecap="round" stroke-linejoin="round"/>
<path opacity="0.4" d="M13.5833 15.0255V16.9704C13.5833 17.685 13.5833 17.685 14.2574 18.14L16.1112 19.2119C16.391 19.3737 16.846 19.3737 17.1224 19.2119L18.9763 18.14C19.6504 17.685 19.6504 17.685 19.6504 16.9738V15.0255C19.6504 14.3143 19.6504 14.3143 18.9763 13.8592L17.1224 12.7874C16.846 12.6256 16.391 12.6256 16.1112 12.7874L14.2574 13.8592C13.5833 14.3143 13.5833 14.3143 13.5833 15.0255Z" stroke="#C2DDFF" stroke-width="1.5" stroke-linecap="round" stroke-linejoin="round"/>
<path opacity="0.4" d="M16.6175 17.0117C17.176 17.0117 17.6287 16.5589 17.6287 16.0005C17.6287 15.442 17.176 14.9893 16.6175 14.9893C16.0591 14.9893 15.6063 15.442 15.6063 16.0005C15.6063 16.5589 16.0591 17.0117 16.6175 17.0117Z" stroke="#C2DDFF" stroke-width="1.5" stroke-linecap="round" stroke-linejoin="round"/>
</svg>
