<svg width="20" height="20" viewBox="0 0 20 20" fill="none" xmlns="http://www.w3.org/2000/svg">
<path d="M9.9987 9.99935C12.2999 9.99935 14.1654 8.13387 14.1654 5.83268C14.1654 3.5315 12.2999 1.66602 9.9987 1.66602C7.69751 1.66602 5.83203 3.5315 5.83203 5.83268C5.83203 8.13387 7.69751 9.99935 9.9987 9.99935Z" stroke="#1E1E1E" stroke-width="1.5" stroke-linecap="round" stroke-linejoin="round"/>
<path d="M16.0066 13.1162L13.0566 16.0662C12.9399 16.1829 12.8316 16.3995 12.8066 16.5579L12.6482 17.6828C12.5899 18.0912 12.8732 18.3745 13.2816 18.3162L14.4066 18.1579C14.5649 18.1329 14.7899 18.0245 14.8982 17.9079L17.8482 14.9579C18.3566 14.4495 18.5982 13.8579 17.8482 13.1079C17.1066 12.3662 16.5149 12.6079 16.0066 13.1162Z" stroke="#1E1E1E" stroke-width="1.5" stroke-miterlimit="10" stroke-linecap="round" stroke-linejoin="round"/>
<path d="M15.582 13.541C15.832 14.441 16.532 15.141 17.432 15.391" stroke="#1E1E1E" stroke-width="1.5" stroke-miterlimit="10" stroke-linecap="round" stroke-linejoin="round"/>
<path opacity="0.4" d="M2.83984 18.3333C2.83984 15.1083 6.0482 12.5 9.9982 12.5C10.8649 12.5 11.6982 12.625 12.4732 12.8583" stroke="#1E1E1E" stroke-width="1.5" stroke-linecap="round" stroke-linejoin="round"/>
</svg>
