<svg width="22" height="22" viewBox="0 0 22 22" fill="none" xmlns="http://www.w3.org/2000/svg">
<path opacity="0.4" d="M11.9166 8.25H6.41663" stroke="#C2DDFF" stroke-width="1.5" stroke-linecap="round" stroke-linejoin="round"/>
<path d="M20.1667 10.0561V11.9444C20.1667 12.4486 19.7633 12.8611 19.25 12.8794H17.4533C16.4633 12.8794 15.5558 12.1552 15.4733 11.1652C15.4183 10.5877 15.6383 10.0469 16.0233 9.67107C16.3625 9.32274 16.83 9.12109 17.3433 9.12109H19.25C19.7633 9.13943 20.1667 9.55189 20.1667 10.0561Z" stroke="#C2DDFF" stroke-width="1.5" stroke-linecap="round" stroke-linejoin="round"/>
<path d="M16.0234 9.6705C15.6384 10.0463 15.4184 10.5872 15.4734 11.1647C15.5559 12.1547 16.4634 12.8788 17.4534 12.8788H19.25V14.208C19.25 16.958 17.4167 18.7913 14.6667 18.7913H6.41671C3.66671 18.7913 1.83337 16.958 1.83337 14.208V7.79134C1.83337 5.29801 3.33671 3.55634 5.67421 3.26301C5.91254 3.22634 6.16004 3.20801 6.41671 3.20801H14.6667C14.905 3.20801 15.1342 3.21716 15.3542 3.25383C17.7192 3.52883 19.25 5.27967 19.25 7.79134V9.12052H17.3434C16.83 9.12052 16.3625 9.32216 16.0234 9.6705Z" stroke="#C2DDFF" stroke-width="1.5" stroke-linecap="round" stroke-linejoin="round"/>
</svg>
