<svg width="20" height="20" viewBox="0 0 20 20" fill="none" xmlns="http://www.w3.org/2000/svg">
<path d="M8.95933 14.0498V15.7415C8.95933 17.1748 7.62599 18.3332 5.98432 18.3332C4.34266 18.3332 3.00098 17.1748 3.00098 15.7415V14.0498C3.00098 15.4831 4.33432 16.4998 5.98432 16.4998C7.62599 16.4998 8.95933 15.4748 8.95933 14.0498Z" stroke="#5CA4FF" stroke-width="1.5" stroke-linecap="round" stroke-linejoin="round"/>
<path d="M8.95786 11.7581C8.95786 12.1748 8.84118 12.5581 8.64118 12.8914C8.14952 13.6998 7.14117 14.2081 5.97451 14.2081C4.80784 14.2081 3.7995 13.6914 3.30783 12.8914C3.10783 12.5581 2.99121 12.1748 2.99121 11.7581C2.99121 11.0415 3.32453 10.3998 3.85786 9.93312C4.39953 9.45812 5.14117 9.1748 5.96617 9.1748C6.79117 9.1748 7.53286 9.46645 8.07452 9.93312C8.62452 10.3914 8.95786 11.0415 8.95786 11.7581Z" stroke="#5CA4FF" stroke-width="1.5" stroke-linecap="round" stroke-linejoin="round"/>
<path d="M8.95933 11.7577V14.0493C8.95933 15.4827 7.62599 16.4993 5.98432 16.4993C4.34266 16.4993 3.00098 15.4743 3.00098 14.0493V11.7577C3.00098 10.3243 4.33432 9.16602 5.98432 9.16602C6.80932 9.16602 7.55101 9.45766 8.09268 9.92433C8.62601 10.391 8.95933 11.041 8.95933 11.7577Z" stroke="#5CA4FF" stroke-width="1.5" stroke-linecap="round" stroke-linejoin="round"/>
<path d="M18.3338 9.14196V10.8587C18.3338 11.317 17.9672 11.692 17.5005 11.7086H15.8672C14.9672 11.7086 14.1422 11.0503 14.0672 10.1503C14.0172 9.62531 14.2172 9.13364 14.5672 8.79197C14.8755 8.47531 15.3005 8.29199 15.7672 8.29199H17.5005C17.9672 8.30866 18.3338 8.68362 18.3338 9.14196Z" stroke="#5CA4FF" stroke-width="1.5" stroke-linecap="round" stroke-linejoin="round"/>
<path d="M1.66699 8.74935V7.08268C1.66699 4.81602 3.03366 3.23268 5.15866 2.96601C5.37533 2.93268 5.60033 2.91602 5.83366 2.91602H13.3337C13.5503 2.91602 13.7587 2.92434 13.9587 2.95767C16.1087 3.20767 17.5003 4.79935 17.5003 7.08268V8.29103H15.767C15.3003 8.29103 14.8753 8.47434 14.567 8.79101C14.217 9.13267 14.017 9.62434 14.067 10.1493C14.142 11.0493 14.967 11.7077 15.867 11.7077H17.5003V12.916C17.5003 15.416 15.8337 17.0827 13.3337 17.0827H11.2503" stroke="#5CA4FF" stroke-width="1.5" stroke-linecap="round" stroke-linejoin="round"/>
</svg>
