<svg width="24" height="24" viewBox="0 0 24 24" fill="none" xmlns="http://www.w3.org/2000/svg">
<path fill-rule="evenodd" clip-rule="evenodd" d="M22 21.0107H2C1.80109 21.0107 1.61032 21.0898 1.46967 21.2304C1.32902 21.3711 1.25 21.5618 1.25 21.7607C1.25 21.9597 1.32902 22.1504 1.46967 22.2911C1.61032 22.4317 1.80109 22.5107 2 22.5107H22C22.1989 22.5107 22.3897 22.4317 22.5303 22.2911C22.671 22.1504 22.75 21.9597 22.75 21.7607C22.75 21.5618 22.671 21.3711 22.5303 21.2304C22.3897 21.0898 22.1989 21.0107 22 21.0107Z" fill="#5CA4FF"/>
<path fill-rule="evenodd" clip-rule="evenodd" d="M14.75 21.761V3.23797C14.7496 2.95214 14.6793 2.67074 14.5451 2.41835C14.4109 2.16596 14.217 1.95025 13.9803 1.79007C13.7436 1.62988 13.4712 1.53008 13.187 1.49938C12.9029 1.46869 12.6155 1.50803 12.35 1.61397L4.35 4.81397C4.02525 4.94389 3.74688 5.16814 3.55081 5.45779C3.35474 5.74744 3.24996 6.0892 3.25 6.43897V21.761C3.25 22.176 3.586 22.511 4 22.511H14C14.1989 22.511 14.3897 22.432 14.5303 22.2913C14.671 22.1507 14.75 21.9599 14.75 21.761ZM7 19.511H11C11.1989 19.511 11.3897 19.432 11.5303 19.2913C11.671 19.1507 11.75 18.9599 11.75 18.761C11.75 18.5621 11.671 18.3713 11.5303 18.2306C11.3897 18.09 11.1989 18.011 11 18.011H7C6.80109 18.011 6.61032 18.09 6.46967 18.2306C6.32902 18.3713 6.25 18.5621 6.25 18.761C6.25 18.9599 6.32902 19.1507 6.46967 19.2913C6.61032 19.432 6.80109 19.511 7 19.511ZM7 16.011H11C11.1989 16.011 11.3897 15.932 11.5303 15.7913C11.671 15.6507 11.75 15.4599 11.75 15.261C11.75 15.0621 11.671 14.8713 11.5303 14.7306C11.3897 14.59 11.1989 14.511 11 14.511H7C6.80109 14.511 6.61032 14.59 6.46967 14.7306C6.32902 14.8713 6.25 15.0621 6.25 15.261C6.25 15.4599 6.32902 15.6507 6.46967 15.7913C6.61032 15.932 6.80109 16.011 7 16.011ZM7 12.511H11C11.1989 12.511 11.3897 12.432 11.5303 12.2913C11.671 12.1507 11.75 11.9599 11.75 11.761C11.75 11.5621 11.671 11.3713 11.5303 11.2306C11.3897 11.09 11.1989 11.011 11 11.011H7C6.80109 11.011 6.61032 11.09 6.46967 11.2306C6.32902 11.3713 6.25 11.5621 6.25 11.761C6.25 11.9599 6.32902 12.1507 6.46967 12.2913C6.61032 12.432 6.80109 12.511 7 12.511ZM7 9.01097H11C11.1989 9.01097 11.3897 8.93196 11.5303 8.79131C11.671 8.65065 11.75 8.45989 11.75 8.26097C11.75 8.06206 11.671 7.8713 11.5303 7.73064C11.3897 7.58999 11.1989 7.51097 11 7.51097H7C6.80109 7.51097 6.61032 7.58999 6.46967 7.73064C6.32902 7.8713 6.25 8.06206 6.25 8.26097C6.25 8.45989 6.32902 8.65065 6.46967 8.79131C6.61032 8.93196 6.80109 9.01097 7 9.01097ZM15.75 7.01097V21.761C15.75 22.03 15.69 22.284 15.582 22.511H20C20.1989 22.511 20.3897 22.432 20.5303 22.2913C20.671 22.1507 20.75 21.9599 20.75 21.761V8.76097C20.75 8.29685 20.5656 7.85173 20.2374 7.52354C19.9092 7.19535 19.4641 7.01097 19 7.01097H15.75Z" fill="#5CA4FF"/>
</svg>
