<svg width="22" height="22" viewBox="0 0 22 22" fill="none" xmlns="http://www.w3.org/2000/svg">
<path opacity="0.4" d="M20.1667 13.75C20.1667 17.2975 17.2975 20.1667 13.75 20.1667L14.7125 18.5625" stroke="#C2DDFF" stroke-width="1.5" stroke-linecap="round" stroke-linejoin="round"/>
<path opacity="0.4" d="M1.83301 8.25016C1.83301 4.70266 4.70217 1.8335 8.24967 1.8335L7.28717 3.43766" stroke="#C2DDFF" stroke-width="1.5" stroke-linecap="round" stroke-linejoin="round"/>
<path d="M12.5576 4.0791L16.2059 6.18742L19.8176 4.08828" stroke="#C2DDFF" stroke-width="1.5" stroke-linecap="round" stroke-linejoin="round"/>
<path d="M16.2061 9.91824V6.17822" stroke="#C2DDFF" stroke-width="1.5" stroke-linecap="round" stroke-linejoin="round"/>
<path d="M15.3458 2.026L13.1458 3.24512C12.6508 3.52012 12.2383 4.21678 12.2383 4.78512V7.11348C12.2383 7.68182 12.6416 8.37848 13.1458 8.65348L15.3458 9.87266C15.8133 10.1385 16.5833 10.1385 17.0599 9.87266L19.2599 8.65348C19.7549 8.37848 20.1674 7.68182 20.1674 7.11348V4.78512C20.1674 4.21678 19.7641 3.52012 19.2599 3.24512L17.0599 2.026C16.5924 1.76933 15.8224 1.76933 15.3458 2.026Z" stroke="#C2DDFF" stroke-width="1.5" stroke-linecap="round" stroke-linejoin="round"/>
<path d="M2.15234 14.1626L5.79151 16.2709L9.41234 14.1718" stroke="#C2DDFF" stroke-width="1.5" stroke-linecap="round" stroke-linejoin="round"/>
<path d="M5.79297 20.0017V16.2617" stroke="#C2DDFF" stroke-width="1.5" stroke-linecap="round" stroke-linejoin="round"/>
<path d="M4.94051 12.109L2.74051 13.3281C2.24551 13.6031 1.83301 14.2998 1.83301 14.8681V17.1965C1.83301 17.7648 2.23635 18.4615 2.74051 18.7365L4.94051 19.9557C5.40801 20.2215 6.178 20.2215 6.65467 19.9557L8.85468 18.7365C9.34968 18.4615 9.76217 17.7648 9.76217 17.1965V14.8681C9.76217 14.2998 9.35884 13.6031 8.85468 13.3281L6.65467 12.109C6.178 11.8523 5.40801 11.8523 4.94051 12.109Z" stroke="#C2DDFF" stroke-width="1.5" stroke-linecap="round" stroke-linejoin="round"/>
</svg>
