<svg width="50" height="50" viewBox="0 0 50 50" fill="none" xmlns="http://www.w3.org/2000/svg">
<g clip-path="url(#clip0_6611_8588)">
<path d="M25 50C11.195 50 0 38.805 0 25C0 11.195 11.195 0 25 0C38.805 0 50 11.195 50 25C50 38.805 38.805 50 25 50Z" fill="#25D366"/>
<path fill-rule="evenodd" clip-rule="evenodd" d="M36.6939 13.36C33.5939 10.255 29.4639 8.54504 25.0689 8.54004C16.0139 8.54004 8.63891 15.91 8.63891 24.97C8.63891 27.865 9.39391 30.695 10.8339 33.185L8.50391 41.7L17.2139 39.415C19.6139 40.725 22.3139 41.415 25.0639 41.415H25.0689C34.1239 41.415 41.4939 34.045 41.4989 24.985C41.5039 20.595 39.7989 16.465 36.6939 13.36ZM25.0739 38.64H25.0689C22.6189 38.64 20.2139 37.98 18.1189 36.735L17.6189 36.44L12.4489 37.795L13.8289 32.755L13.5039 32.24C12.1389 30.065 11.4139 27.555 11.4139 24.97C11.4189 17.44 17.5439 11.315 25.0789 11.315C28.7289 11.315 32.1539 12.74 34.7339 15.32C37.3139 17.9 38.7339 21.335 38.7289 24.98C38.7289 32.515 32.5989 38.64 25.0739 38.64ZM32.5639 28.41C32.1539 28.205 30.1339 27.21 29.7589 27.075C29.3839 26.94 29.1089 26.87 28.8339 27.28C28.5589 27.69 27.7739 28.615 27.5339 28.89C27.2939 29.165 27.0539 29.2 26.6439 28.995C26.2339 28.79 24.9089 28.355 23.3439 26.955C22.1239 25.865 21.2989 24.52 21.0589 24.11C20.8189 23.7 21.0339 23.475 21.2389 23.27C21.4239 23.085 21.6489 22.79 21.8539 22.55C22.0589 22.31 22.1289 22.14 22.2639 21.865C22.3989 21.59 22.3339 21.35 22.2289 21.145C22.1239 20.94 21.3039 18.92 20.9639 18.095C20.6289 17.295 20.2939 17.405 20.0389 17.39C19.7989 17.38 19.5239 17.375 19.2539 17.375C18.9789 17.375 18.5339 17.48 18.1589 17.89C17.7839 18.3 16.7239 19.295 16.7239 21.315C16.7239 23.335 18.1939 25.29 18.3989 25.56C18.6039 25.835 21.2939 29.98 25.4139 31.76C26.3939 32.185 27.1589 32.435 27.7539 32.625C28.7389 32.94 29.6339 32.895 30.3389 32.79C31.1289 32.67 32.7689 31.795 33.1089 30.84C33.4489 29.88 33.4489 29.06 33.3489 28.89C33.2489 28.72 32.9739 28.62 32.5639 28.41Z" fill="white"/>
</g>
<defs>
<clipPath id="clip0_6611_8588">
<rect width="50" height="50" fill="white"/>
</clipPath>
</defs>
</svg>
